<svg width="794" height="1123" viewBox="0 0 794 1123" fill="none" xmlns="http://www.w3.org/2000/svg">
  <!-- A4 Background with Al-Barimi Design -->
  <rect width="794" height="1123" fill="white"/>
  
  <!-- Right Side Blue Bar -->
  <rect x="770" y="0" width="24" height="1123" fill="#00627F"/>
  
  <!-- Footer Blue Bar -->
  <rect x="0" y="1083" width="794" height="40" fill="#00627F"/>
  
  <!-- Left Golden Element -->
  <rect x="26" y="1015" width="88" height="68" fill="#C49632"/>
  
  <!-- Golden Line Separators -->
  <line x1="50" y1="120" x2="744" y2="120" stroke="#C49632" stroke-width="1"/>
  
  <!-- Left Side Watermark Pattern -->
  <g opacity="0.05" transform="translate(50, 150)">
    <path fill-rule="evenodd" clip-rule="evenodd" d="M64.3165 1.74407C63.623 0.593049 62.1418 0.177188 60.9093 0.764579L60.4669 0.975516L60.3517 0.746024C57.945 2.22761 47.5013 8.92769 35.8624 20.2997C23.1272 32.743 8.986 50.7526 2.3497 73.6103L2.3487 73.6161L2.2726 73.9169C1.97978 75.3268 2.5883 76.7675 3.8146 77.5839L4.086 77.749L4.088 77.7499C4.6413 78.0575 5.2162 78.2069 5.7843 78.207C6.783 78.207 7.7518 77.7839 8.4523 76.9609L8.4571 76.956C11.9124 73.0113 21.8979 62.0267 34.3429 52.4755C40.5655 47.6998 47.4167 43.2712 54.3859 40.2626C61.3521 37.2553 68.4693 35.6522 75.2081 36.5702L76.8234 36.79L75.3624 37.5136C72.0751 39.1413 68.3509 41.0526 65.0489 42.9101C61.9897 44.6311 59.3262 46.2888 57.7023 47.621L61.6105 52.0077C62.5386 51.2615 63.9052 50.3682 65.5255 49.4013C67.3927 48.2872 69.6248 47.0594 71.9718 45.8242C76.6649 43.3541 81.833 40.846 85.4933 39.1445C86.5689 38.6361 87.251 37.5622 87.2511 36.4072V36.3945C87.2806 35.2421 86.5975 34.1372 85.5577 33.6318C73.2452 27.6495 59.5108 30.7077 46.6671 37.4433C33.832 44.1745 21.9908 54.5272 13.5519 62.9384L12.7433 62.3779C20.8532 44.5247 33.524 30.3683 44.2013 20.6513C49.5418 15.7911 54.3881 12.0365 57.9249 9.48138C59.6934 8.20372 61.1354 7.22646 62.1476 6.5595C62.6536 6.22604 63.0524 5.97028 63.3312 5.79388C63.3431 5.78631 63.3548 5.77869 63.3663 5.77142L63.2081 5.51849L63.5919 5.24505C64.6931 4.46194 65.0194 2.94636 64.3165 1.74407Z" fill="#00627F"/>
  </g>
  
  <!-- Decorative Elements -->
  <g opacity="0.1">
    <!-- Center watermark -->
    <circle cx="397" cy="561" r="200" fill="none" stroke="#C49632" stroke-width="2"/>
    <circle cx="397" cy="561" r="150" fill="none" stroke="#00627F" stroke-width="1"/>
    <circle cx="397" cy="561" r="100" fill="none" stroke="#C49632" stroke-width="1"/>
  </g>
  
  <!-- Footer Golden Shape -->
  <polygon points="114,1103 134,1103 124,1108" fill="#C49632"/>
</svg>