<svg width="595" height="842" viewBox="0 0 595 842" fill="none" xmlns="http://www.w3.org/2000/svg">
  <rect width="595" height="842" fill="white"/>
  
  <!-- Side Decoration -->
  <rect x="575" y="0" width="20" height="842" fill="#00627F"/>
  <rect x="572" y="0" width="3" height="842" fill="#C79C45"/>

  <!-- Header Design -->
  <rect width="572" height="80" fill="#F8F9FA"/>
  <rect y="80" width="572" height="2" fill="#C79C45"/>
  
  <!-- Company Logo (Embedded path from company-logo.svg) -->
  <g transform="translate(480, 5) scale(0.8)">
    <path fill-rule="evenodd" clip-rule="evenodd" d="M81.3532 31.451C57.5788 19.9162 28.5104 43.3473 12.4635 59.3186C27.787 25.6343 60.3739 5.85084 60.7356 5.6208L60.5712 5.3579C61.8207 4.47061 62.1824 2.76174 61.3933 1.41437C60.6041 0.0998539 58.927 -0.360228 57.546 0.297027L57.4144 0.0341249C55.6387 1.08574 14.3708 26.0944 1.71086 69.6376C1.18473 71.3793 1.97392 73.2196 3.58518 74.1069C4.17708 74.4355 4.80185 74.5998 5.42662 74.5998C6.51176 74.5998 7.56401 74.1398 8.32031 73.2525C14.864 65.7926 46.1356 31.7139 71.2581 35.1316C65.0104 38.2207 57.0856 42.3943 54.0275 45.0891L58.368 49.9527C61.6892 47.028 74.3491 40.7512 81.2874 37.5306C82.4712 36.9719 83.2275 35.7889 83.2275 34.5072C83.2604 33.2256 82.5041 32.0097 81.3532 31.451ZM17.2964 33.6861L13.3176 38.8455C12.7586 38.4183 -0.0655127 28.2967 0.00025207 4.70156C0.00025207 3.15703 0.920959 1.77681 2.30202 1.11957C3.71596 0.495177 5.36008 0.758087 6.51096 1.74395C8.02355 3.05845 11.0158 5.58884 14.2054 8.25068C19.5324 12.72 25.5827 17.8136 28.2462 20.2455L23.84 25.0434C21.308 22.7101 15.3234 17.6822 10.0294 13.2458C8.87849 12.2928 7.79337 11.3726 6.8069 10.5182C8.45102 26.555 16.9018 33.3904 17.2964 33.6861ZM43.4722 46.3056L49.0293 42.9208C50.4761 45.2212 54.981 51.0707 69.2191 63.9855C70.3042 64.9714 70.6988 66.4831 70.2384 67.8633C69.811 69.2435 68.5943 70.2622 67.1475 70.4265C65.4376 70.6018 63.7825 70.6894 62.1822 70.6894C41.8938 70.6894 30.3192 56.23 29.7931 55.5728L34.9228 51.5636C35.3502 52.0894 44.1956 63.0325 59.7161 64.117C51.3311 56.1972 45.8726 50.2162 43.4722 46.3056Z" fill="#C79C45"/>
  </g>

  <!-- Company Name in Header -->
  <text x="470" y="35" fill="#00627F" font-family="Arial, sans-serif" font-size="18" font-weight="bold" text-anchor="end" direction="rtl">شركة البريمي للسيارات</text>
  <text x="470" y="55" fill="#C79C45" font-family="Arial, sans-serif" font-size="14" font-weight="bold" text-anchor="end">ALBARIMI CARS</text>

  <!-- Footer Design -->
  <rect y="782" width="575" height="60" fill="#00627F"/>
  <rect y="780" width="575" height="2" fill="#C79C45"/>
  
  <!-- Footer Content -->
  <text x="550" y="805" fill="white" font-family="Arial, sans-serif" font-size="10" text-anchor="end" direction="rtl">
    سجل تجاري: 1010343813 | رقم الترخيص: 3562
  </text>
  <text x="550" y="825" fill="white" font-family="Arial, sans-serif" font-size="10" text-anchor="end" direction="rtl">
    الرقم الضريبي: 31028612640003
  </text>
  <text x="30" y="805" fill="white" font-family="Arial, sans-serif" font-size="10" text-anchor="start">
    @albarimi_cars | 920033340
  </text>
  <text x="30" y="825" fill="white" font-family="Arial, sans-serif" font-size="10" text-anchor="start">
    Albarimi.com | Riyadh KSA AlQadisiyah 13261
  </text>

  <!-- Decorative Watermark Logo -->
  <g opacity="0.05" transform="translate(150, 300) scale(4)">
    <path d="M81.3532 31.451C57.5788 19.9162 28.5104 43.3473 12.4635 59.3186C27.787 25.6343 60.3739 5.85084 60.7356 5.6208L60.5712 5.3579C61.8207 4.47061 62.1824 2.76174 61.3933 1.41437C60.6041 0.0998539 58.927 -0.360228 57.546 0.297027L57.4144 0.0341249C55.6387 1.08574 14.3708 26.0944 1.71086 69.6376C1.18473 71.3793 1.97392 73.2196 3.58518 74.1069C4.17708 74.4355 4.80185 74.5998 5.42662 74.5998C6.51176 74.5998 7.56401 74.1398 8.32031 73.2525C14.864 65.7926 46.1356 31.7139 71.2581 35.1316C65.0104 38.2207 57.0856 42.3943 54.0275 45.0891L58.368 49.9527C61.6892 47.028 74.3491 40.7512 81.2874 37.5306C82.4712 36.9719 83.2275 35.7889 83.2275 34.5072C83.2604 33.2256 82.5041 32.0097 81.3532 31.451ZM17.2964 33.6861L13.3176 38.8455C12.7586 38.4183 -0.0655127 28.2967 0.00025207 4.70156C0.00025207 3.15703 0.920959 1.77681 2.30202 1.11957C3.71596 0.495177 5.36008 0.758087 6.51096 1.74395C8.02355 3.05845 11.0158 5.58884 14.2054 8.25068C19.5324 12.72 25.5827 17.8136 28.2462 20.2455L23.84 25.0434C21.308 22.7101 15.3234 17.6822 10.0294 13.2458C8.87849 12.2928 7.79337 11.3726 6.8069 10.5182C8.45102 26.555 16.9018 33.3904 17.2964 33.6861ZM43.4722 46.3056L49.0293 42.9208C50.4761 45.2212 54.981 51.0707 69.2191 63.9855C70.3042 64.9714 70.6988 66.4831 70.2384 67.8633C69.811 69.2435 68.5943 70.2622 67.1475 70.4265C65.4376 70.6018 63.7825 70.6894 62.1822 70.6894C41.8938 70.6894 30.3192 56.23 29.7931 55.5728L34.9228 51.5636C35.3502 52.0894 44.1956 63.0325 59.7161 64.117C51.3311 56.1972 45.8726 50.2162 43.4722 46.3056Z" fill="#00627F"/>
  </g>
</svg>