<?xml version="1.0" encoding="UTF-8" standalone="no"?>
<!-- Uploaded to: SVG Repo, www.svgrepo.com, Generator: SVG Repo Mixer Tools -->

<svg
   width="800px"
   height="800px"
   viewBox="0 0 498.503 498.503"
   version="1.1"
   id="svg7"
   sodipodi:docname="bmw.svg"
   inkscape:version="1.4 (e7c3feb1, 2024-10-09)"
   xmlns:inkscape="http://www.inkscape.org/namespaces/inkscape"
   xmlns:sodipodi="http://sodipodi.sourceforge.net/DTD/sodipodi-0.dtd"
   xmlns="http://www.w3.org/2000/svg"
   xmlns:svg="http://www.w3.org/2000/svg">
  <defs
     id="defs7" />
  <sodipodi:namedview
     id="namedview7"
     pagecolor="#ffffff"
     bordercolor="#cccccc"
     borderopacity="1"
     inkscape:showpageshadow="0"
     inkscape:pageopacity="1"
     inkscape:pagecheckerboard="0"
     inkscape:deskcolor="#d1d1d1"
     inkscape:zoom="1.23375"
     inkscape:cx="408.51064"
     inkscape:cy="359.47315"
     inkscape:window-width="2240"
     inkscape:window-height="1126"
     inkscape:window-x="0"
     inkscape:window-y="25"
     inkscape:window-maximized="0"
     inkscape:current-layer="svg7" />
  <path
     id="path1"
     style="fill:#c49632;fill-opacity:1"
     d="M 249.2515 0 C 111.8135 0 0 111.8135 0 249.2515 C 0 315.8285 25.926645 378.42036 73.004645 425.49836 C 120.08264 472.57536 182.6755 498.503 249.2515 498.503 C 315.8285 498.503 378.41936 472.57536 425.49836 425.49836 C 472.57536 378.42036 498.503 315.8285 498.503 249.2515 C 498.503 182.6755 472.57536 120.08264 425.49836 73.004645 C 378.42036 25.926645 315.8285 5.9034614e-15 249.2515 0 z M 249.2515 8.6240045 C 313.5245 8.6240045 373.95051 33.653274 419.39851 79.103274 C 464.84751 124.55227 489.87778 184.9785 489.87778 249.2515 C 489.87778 381.9345 381.9335 489.879 249.2515 489.879 C 184.9785 489.879 124.55227 464.84873 79.103274 419.39973 C 33.654274 373.94973 8.6240045 313.5245 8.6240045 249.2515 C 8.6240045 184.9795 33.654274 124.55227 79.103274 79.103274 C 124.55227 33.653274 184.9785 8.6240045 249.2515 8.6240045 z " />
  <path
     id="path3"
     style="fill:#c49632;fill-opacity:1"
     d="M 249.2515 18.540514 C 121.8355 18.540514 18.540514 121.8355 18.540514 249.2515 C 18.540514 376.6675 121.8355 479.96249 249.2515 479.96249 C 376.6675 479.96249 479.96127 376.6675 479.96127 249.2515 C 479.96127 121.8355 376.6675 18.540514 249.2515 18.540514 z M 215.53439 31.136965 L 233.79985 31.136965 L 250.3298 74.39208 L 266.85854 31.136965 L 285.12522 31.136965 L 285.12522 91.862809 L 272.9669 91.862809 L 272.9669 49.462062 L 256.97002 91.862809 L 243.68959 91.862809 L 227.69149 49.462062 L 227.69149 91.862809 L 215.53439 91.862809 L 215.53439 31.136965 z M 388.35282 77.519894 L 397.74844 89.123233 L 373.89185 120.33079 L 410.34975 104.67954 L 420.43057 117.12752 L 397.54032 149.53386 L 433.0258 132.68748 L 442.42141 144.2896 L 386.56741 171.36527 L 375.54096 157.63819 L 397.50989 125.51541 L 397.37967 125.35354 L 361.39155 140.16381 L 350.25556 126.52435 L 388.35282 77.519894 z M 107.19518 86.376355 C 109.73728 86.379385 112.32607 87.278762 114.87232 89.415324 C 117.38932 91.527324 118.45489 92.224485 121.50889 97.793485 C 122.22789 99.769485 122.78135 103.35028 121.42735 106.85928 C 128.51635 102.46428 136.06745 103.89547 140.95245 108.64347 C 148.45845 115.93947 147.35371 124.37442 140.21371 132.88342 L 108.96477 170.12389 L 62.383464 131.03716 L 92.016157 95.724503 C 96.232594 90.699566 101.60258 86.369689 107.19518 86.376355 z M 249.2515 101.88155 C 330.6405 101.88155 396.62145 167.8625 396.62145 249.2515 C 396.62145 330.6415 330.6415 396.62145 249.2515 396.62145 C 167.8625 396.62145 101.88155 330.6415 101.88155 249.2515 C 101.88155 167.8625 167.8625 101.88155 249.2515 101.88155 z " />
  <path
     d="M111.362 249.251h137.889V111.362c-76.153 0-137.889 61.737-137.889 137.889zM249.251 249.251v137.89c76.153 0 137.889-61.736 137.889-137.89H249.251z"
     id="path5"
     style="fill:#c49632;fill-opacity:1" />
  <path
     d="M98.491 104.464c2.062-2.458 6.722-2.357 9.719.157 3.295 2.765 3.303 6.685 1.09 9.321l-17.597 20.971-11.01-9.239 17.798-21.21zM129.8 129.203l-18.553 22.11-11.634-9.762 18.703-22.29c2.112-2.517 6.821-3.25 9.997-.584 3.595 3.015 3.951 7.59 1.487 10.526z"
     id="path7"
     style="fill:#c49632;fill-opacity:1" />
</svg>
