<?xml version="1.0" encoding="UTF-8" standalone="no"?>
<!-- Uploaded to: SVG Repo, www.svgrepo.com, Generator: SVG Repo Mixer Tools -->

<svg
   fill="#000000"
   version="1.1"
   id="Layer_1"
   viewBox="0 0 2500 2500"
   xml:space="preserve"
   width="800px"
   height="800px"
   sodipodi:docname="bugatti-svgrepo-com.svg"
   inkscape:version="1.4 (e7c3feb1, 2024-10-09)"
   xmlns:inkscape="http://www.inkscape.org/namespaces/inkscape"
   xmlns:sodipodi="http://sodipodi.sourceforge.net/DTD/sodipodi-0.dtd"
   xmlns="http://www.w3.org/2000/svg"
   xmlns:svg="http://www.w3.org/2000/svg"><defs
   id="defs1" /><sodipodi:namedview
   id="namedview1"
   pagecolor="#ffffff"
   bordercolor="#cccccc"
   borderopacity="1"
   inkscape:showpageshadow="0"
   inkscape:pageopacity="1"
   inkscape:pagecheckerboard="0"
   inkscape:deskcolor="#d1d1d1"
   inkscape:zoom="1.23375"
   inkscape:cx="399.59473"
   inkscape:cy="400"
   inkscape:window-width="1200"
   inkscape:window-height="1136"
   inkscape:window-x="0"
   inkscape:window-y="25"
   inkscape:window-maximized="0"
   inkscape:current-layer="Layer_1" />
<g
   id="g1"
   style="fill:#c49632;fill-opacity:1">
	<path
   d="M1921.9,1875.1c150.3,0,240.2-107.5,240.2-240.2c0-132.7-89.9-240.2-240.2-240.2h-487.3v480.4H1921.9z M1921.9,1037.8   c132.3,0,212.8-95.2,212.8-212.7c0-117.5-80.5-212.8-212.8-212.8h-487.3v425.5H1921.9z M748.3,1394.6v119H446.4V918.8h301.9v119   h288.3V612.2H310.4v151H8.5l0-151v-302h1913.4c299.4,0,542.2,242.7,542.2,542.2c0.2,131.5-47.6,258.5-134.4,357.3   c100.1,102.6,161.8,243,161.8,397.7c0,314.6-255,569.6-569.6,569.6H8.5l0-302v-151h302v151h726.2v-480.4L748.3,1394.6L748.3,1394.6   z"
   id="path1"
   style="fill:#c49632;fill-opacity:1" />
</g>
</svg>
