<?xml version="1.0" encoding="UTF-8" standalone="no"?>
<svg
   version="1.0"
   width="512.000000pt"
   height="512.000000pt"
   viewBox="0 0 512.000000 512.000000"
   preserveAspectRatio="xMidYMid meet"
   id="svg3"
   sodipodi:docname="sedan-car-model.svg"
   inkscape:version="1.4 (e7c3feb1, 2024-10-09)"
   xmlns:inkscape="http://www.inkscape.org/namespaces/inkscape"
   xmlns:sodipodi="http://sodipodi.sourceforge.net/DTD/sodipodi-0.dtd"
   xmlns="http://www.w3.org/2000/svg"
   xmlns:svg="http://www.w3.org/2000/svg">
  <defs
     id="defs3" />
  <sodipodi:namedview
     id="namedview3"
     pagecolor="#ffffff"
     bordercolor="#cccccc"
     borderopacity="1"
     inkscape:showpageshadow="0"
     inkscape:pageopacity="1"
     inkscape:pagecheckerboard="0"
     inkscape:deskcolor="#d1d1d1"
     inkscape:document-units="pt"
     inkscape:zoom="1.4399414"
     inkscape:cx="323.62428"
     inkscape:cy="334.38861"
     inkscape:window-width="2240"
     inkscape:window-height="1260"
     inkscape:window-x="0"
     inkscape:window-y="0"
     inkscape:window-maximized="0"
     inkscape:current-layer="svg3" />
  <g
     transform="translate(0.000000,512.000000) scale(0.100000,-0.100000)"
     fill="#000000"
     stroke="none"
     id="g3"
     style="fill:#00627f;fill-opacity:1">
    <path
       d="M2670 3459 c-198 -19 -428 -74 -578 -135 -48 -20 -229 -100 -402 -179 -486 -220 -514 -232 -620 -250 -300 -51 -732 -168 -881 -239 -97 -46 -104 -54 -149 -191 -22 -68 -40 -140 -40 -160 0 -76 45 -238 75 -273 17 -19 288 -82 352 -82 6 0 8 23 5 53 -10 126 42 263 137 358 242 242 650 146 762 -179 21 -61 29 -175 16 -235 l-8 -37 153 5 c84 3 511 12 948 20 437 8 886 17 998 21 l202 6 0 65 c0 419 499 626 792 329 73 -75 128 -192 128 -278 0 -20 3 -39 8 -41 4 -2 95 13 203 33 141 27 205 43 227 58 75 54 129 196 119 309 -6 64 -23 105 -63 159 -23 29 -24 39 -24 180 0 129 -3 153 -19 180 -22 36 -28 37 -259 79 -154 27 -203 43 -507 160 -356 137 -479 174 -740 221 -235 43 -633 64 -835 43z m180 -131 c-1 -7 -24 -107 -53 -223 l-52 -210 -160 -6 c-88 -4 -280 -10 -426 -14 l-267 -7 -7 51 c-4 32 -16 63 -31 80 l-23 28 22 20 c149 134 449 238 832 286 76 10 165 7 165 -5z m486 -3 c112 -15 268 -49 291 -63 6 -4 36 -48 66 -98 l57 -90 -20 -68 c-11 -38 -21 -70 -22 -71 -6 -6 -768 -28 -774 -23 -5 5 51 383 61 416 6 17 195 16 341 -3z m526 -154 c248 -109 288 -137 288 -207 l0 -34 -103 0 c-120 0 -103 -11 -212 140 -38 52 -79 110 -93 128 -13 17 -22 32 -20 32 3 0 66 -27 140 -59z"
       id="path1"
       style="fill:#00627f;fill-opacity:1" />
    <path
       d="M780 2401 c-177 -57 -281 -211 -267 -396 16 -215 201 -372 415 -352 135 13 255 99 315 225 29 60 32 77 32 157 0 77 -4 99 -27 148 -37 79 -78 128 -141 170 -99 66 -218 83 -327 48z m80 -185 c0 -72 -20 -80 -72 -29 -40 39 -40 43 7 67 55 29 65 23 65 -38z m139 33 l45 -20 -40 -40 c-54 -54 -74 -46 -74 27 0 62 4 63 69 33z m-225 -162 c-5 -13 -19 -17 -61 -17 l-55 0 5 30 c4 16 14 42 23 56 l17 25 39 -38 c27 -27 37 -44 32 -56z m336 51 c29 -64 27 -68 -34 -68 -72 0 -80 20 -29 72 20 21 39 38 41 38 1 0 12 -19 22 -42z m-336 -155 c5 -12 -5 -29 -32 -56 l-39 -38 -17 25 c-9 14 -19 40 -23 56 l-5 30 55 0 c42 0 56 -4 61 -17z m356 5 c0 -7 -10 -33 -21 -57 l-20 -45 -40 40 c-54 54 -46 74 27 74 37 0 54 -4 54 -12z m-286 -74 c12 -5 16 -20 16 -60 0 -61 -4 -63 -69 -33 l-44 20 38 39 c22 22 40 40 41 40 1 0 9 -3 18 -6z m161 -34 l38 -39 -44 -20 c-65 -30 -69 -29 -69 33 0 49 6 62 30 65 3 1 23 -17 45 -39z"
       id="path2"
       style="fill:#00627f;fill-opacity:1" />
    <path
       d="M4000 2406 c-107 -31 -201 -110 -246 -209 -26 -55 -29 -73 -29 -162 0 -88 3 -107 27 -157 115 -245 433 -303 621 -113 188 192 133 504 -110 617 -77 37 -187 46 -263 24z m70 -190 c0 -72 -20 -80 -71 -30 -42 41 -41 50 5 70 58 25 66 20 66 -40z m130 38 c22 -9 40 -19 40 -22 0 -15 -74 -80 -86 -75 -16 6 -20 113 -4 113 5 0 28 -7 50 -16z m134 -156 c6 -28 6 -28 -49 -28 -74 0 -81 18 -29 71 l38 39 17 -28 c9 -15 19 -39 23 -54z m-387 40 c18 -18 33 -40 33 -50 0 -15 -9 -18 -59 -18 l-60 0 9 29 c10 36 29 71 37 71 4 0 22 -14 40 -32z m33 -155 c0 -17 -57 -83 -72 -83 -9 0 -28 34 -38 71 l-9 29 60 0 c49 0 59 -3 59 -17z m354 -10 c-4 -16 -14 -40 -23 -55 l-17 -28 -38 39 c-52 53 -45 71 29 71 55 0 55 0 49 -27z m-280 -59 c12 -5 16 -20 16 -61 l0 -55 -30 5 c-16 4 -41 14 -56 23 l-25 17 37 39 c21 21 39 38 40 38 1 0 9 -3 18 -6z m186 -75 c0 -7 -73 -39 -90 -39 -15 0 -12 107 3 113 11 4 87 -59 87 -74z"
       id="path3"
       style="fill:#00627f;fill-opacity:1" />
  </g>
</svg>
