<?xml version="1.0" encoding="UTF-8" standalone="no"?>
<svg
   viewBox="0 0 649.9 254"
   version="1.1"
   id="svg1"
   sodipodi:docname="ford-mustang.svg"
   inkscape:version="1.4 (e7c3feb1, 2024-10-09)"
   xmlns:inkscape="http://www.inkscape.org/namespaces/inkscape"
   xmlns:sodipodi="http://sodipodi.sourceforge.net/DTD/sodipodi-0.dtd"
   xmlns="http://www.w3.org/2000/svg"
   xmlns:svg="http://www.w3.org/2000/svg">
  <defs
     id="defs1" />
  <sodipodi:namedview
     id="namedview1"
     pagecolor="#ffffff"
     bordercolor="#cccccc"
     borderopacity="1"
     inkscape:showpageshadow="0"
     inkscape:pageopacity="1"
     inkscape:pagecheckerboard="0"
     inkscape:deskcolor="#d1d1d1"
     inkscape:zoom="1.6248653"
     inkscape:cx="325.25773"
     inkscape:cy="127.08746"
     inkscape:window-width="1200"
     inkscape:window-height="1134"
     inkscape:window-x="0"
     inkscape:window-y="25"
     inkscape:window-maximized="0"
     inkscape:current-layer="svg1" />
  <title
     id="title1">ford mustang logo</title>
  <path
     d="M367.35,545c-.2.5-1.9,4-3.2,6.9-2.4,5.1-3.2,6.8-3.3,7.2l-.3.9,2.8,5.8.4.3c.4.3,9,6.8,24.7,3.9l3-.5-1.4-2.7a62,62,0,0,0-6.3-9.7,108.54,108.54,0,0,0-8-8.6,50,50,0,0,1-3.9-4.1l-1.6-4.9-2.4,4.6-.5.9m95.1-8.1h0a236.09,236.09,0,0,1-35.7,2.2h-1.7l-.5,1.6c-2.8,9.3.2,19.6.4,20l.7,2.3,2.3-.9a1.88,1.88,0,0,1,1.9.2l1,.8,1.1-.4c4.4-1.5,6.2-7.6,7-11.1l32,2-15.4,15.3-10.8,1.9-.5.5a104.52,104.52,0,0,1-9.8,9l-1.5,1.3,1.1,1.7c6.5,9.8,12.7,12.4,12.9,12.5l1.2.5,23.9-19.4L493,575h.9l1.7-2,.1-.2c9-10.7,12.7-15.8,16.5-22.5,2.5-4.4,5.7-13.2,7-16.8.6-1.8,1.8-4.1,3.2-7.1l3.8-7.9-4.6,1.2c-4.5,1.1-15.8,4.9-22.6,7.6a167.71,167.71,0,0,1-36.5,9.6m374.3-95.1c0,7.3-3.3,18.1-19.2,28.3-12.2,7.8-36.2,9.4-43.2,8.7-14.9-1.5-27.8-4.5-38.3-8.8-4-1.6-6.9-1.9-9.5-.9-2.9,1.2-6,4.6-7.7,7.6l-.7,1.2c-1.9,3.4-5.5,9.7-10.1,12.8-5.5,3.8-16.6,5-25,4.6l-12.5-.8c-5.6-.4-9.1-.7-10.4-.6-4.2.3-9.9,1.9-13.1,7.8l-.1.2c-3.5,6.4-9.2,17-11.1,19.5-1.5,2-13,16.5-21.3,22.8-7.7,5.9-14.2,10.7-23.1,15-3.6,1.8-9.4,4.4-14.9,6.9l-.1.1c-9.1,4.1-15.3,6.9-17.2,8.1l-.1.1-.1.1A75.79,75.79,0,0,0,541,597c-1.1,2.1-2,3.7-5.7,2.8l-1.5-.4c-10.2-2.5-24.3-5.8-29.1-5.8h-.3l-3.3.9H501l-1.9.6c-.2.1-18.7,6.2-31.9,14.2l-2.7,1.6,2.3,2,4.5,4,.1.1a4.92,4.92,0,0,0,4.8,1l7.8-1.9c1.4,1.7,15,17.5,19.6,22.9l-22.9-.1a45.29,45.29,0,0,0-10.2-6.5c-5.1-2-7.8-2.4-9.9-2.5a7.79,7.79,0,0,1-6-2.8l-4.7-5.7-2.6,2.1-.2.3c-.5.7-3.3,4.5-6.5,5.8-2.7,1.1-4.6,0-6-.9l-.9-.5-.6-.2c-1.1-.5-3.7-1.6-6.1-.2s-3.6,4.7-4.1,9.9l-33.6.2,16.1-18.4,15.3-.2.7-1a21.61,21.61,0,0,1,3.9-4.6c.5-.4,2.2-1.2,7.4-3.1l3.6-1.4-3-2.5c-3.1-2.5-8-6.3-8.8-6.8l-.5-.3a20.13,20.13,0,0,0-5.1-2.5l-6.2-1.9-2.2-.6c-.6-.2-4.8-2.1-9.9-4.6a21.29,21.29,0,0,0-1.1-3.3h.1l-.9-2.1h-1.5c-8.8.1-37.8.4-40.6.6l-4.4.2-2.8.2a13.37,13.37,0,0,1-5.9-1,83.48,83.48,0,0,1-8.8-6.9,6.8,6.8,0,0,1-2-4.9,7.73,7.73,0,0,1,.8-3.4l3-5.9a119.94,119.94,0,0,0,5.4-11.3c1.6-4.1,6.4-18.9,7.6-30.5l.1-.8-.5-.7c-.9-1.2-3.9-6.4-5.9-20.7l-.1-.7-.5-.5c-5.3-5.5-32.8-32.6-51.6-32.2h-.9l-.6.6c-1,1-5.1,4.2-13.4,6.7l-7.5,2.1c-8.2,2.2-16.8,4.5-24.5,8.8-9.7,5.4-20.5,14.1-24.7,19.9l-.2.3-.1.4c-.3,1-2,4.5-9.6,5.4-5.6-.6-9.5-1.1-9.9-1.2a13.23,13.23,0,0,1-4.2-2.3c-1.1-1.2-3.5-3.6-5.3-9.8l-.1-.2V496a43.73,43.73,0,0,1-2.3-4.9,10.66,10.66,0,0,1-.6-3,8.63,8.63,0,0,1,1.4-4.7,45.23,45.23,0,0,1,5.9-7.2l5.6-5.5,4.3-4a76.78,76.78,0,0,0,6.9-8.2l.9-1.3c2.5-3.4,5.9-8.2,12.4-18.5l.2-.2.1-.3a7.64,7.64,0,0,1,1.5-2.6,29,29,0,0,1,3.4-3.6,32.18,32.18,0,0,0,2.8-2.4l.1-.1,2.7-3.2,2.5-3a87.87,87.87,0,0,1,11.8-11,15.77,15.77,0,0,1,3.9-2.4l.7-.3,2.7-1.1.9-.5,3.4-1.9.3-.6c.9-1.6,5.8-10,17.3-16.4a19.92,19.92,0,0,0,3.3-2.4l.1-.1a2.26,2.26,0,0,1,.9-.4c.2,0,.2.3.3.9a34.4,34.4,0,0,1,.3,4.6,29.75,29.75,0,0,1-2,10.6l-1.7,4,7.4-1.6c2.2-.6,6.3-1.8,16.4-6.8,15.4-7.5,26.4-12.2,30.7-12.9l-.1.2-.6.7c-3.2,4-4.7,6.8-4.7,8.9a2.93,2.93,0,0,0,.4,1.6c1.2,2.3,5.2,2.6,12,.8l.5-.2,8.3-2.4c11.2-3.3,28-8.4,41-7.2h.1c-.1.1-.2.2-.2.3l-.6.6c-2,1.7-3.8,3.5-3.8,5.4a1.27,1.27,0,0,0,.1.6c.5,2.6,4.2,3.9,11.4,4.1,2.5,0,8.2-.4,14.8-.8,11.9-.8,26.7-1.9,33.2-1,.4.1.8.2.8.4a1,1,0,0,1-.4.7,179.46,179.46,0,0,1-18.1,10.3l-3.8,1.9,3.9,2.2.1.1c1,.4,3,1.1,9.2,1.7l.5.1a1.27,1.27,0,0,1,.9.7v.1a1,1,0,0,1-.4.7,26,26,0,0,1-12.8,7.4,103.8,103.8,0,0,1-12.4,2.2c3.2.6,7.5,1.4,12.5,2.2,9.8,1.8,34,6.1,49.2,5.7,18.5-.4,36.8-3.3,46.6-4.9h.2c5.9-.9,36.6-5.3,60.4,1,23,6,34.7,10.9,58.1,27.5,4.2,3,13.8,9.5,21.8,14.5,4.5,2.8,7.6,3.4,12.6,2.3,5.9-1.3,7.5-17.4,7.5-17.5.5-5.8,4-16.6,11-21,8-5.1,14-6.1,29-4.7,11.2,1,27.7,5.8,33.1,7.4l2.1.6c21,6.5,33.4,7.5,40.2,7.2,12-.5,23.7-4.8,36.8-13.2a24.38,24.38,0,0,1,2.1,9.6"
     transform="translate(-187.05 -385)"
     style="fill:#c49632;fill-opacity:1"
     id="path1" />
</svg>
