<?xml version="1.0" encoding="UTF-8" standalone="no"?>
<svg
   version="1.0"
   width="512.000000pt"
   height="512.000000pt"
   viewBox="0 0 512.000000 512.000000"
   preserveAspectRatio="xMidYMid meet"
   id="svg2"
   sodipodi:docname="avatar_1.svg"
   inkscape:version="1.4 (e7c3feb1, 2024-10-09)"
   xmlns:inkscape="http://www.inkscape.org/namespaces/inkscape"
   xmlns:sodipodi="http://sodipodi.sourceforge.net/DTD/sodipodi-0.dtd"
   xmlns="http://www.w3.org/2000/svg"
   xmlns:svg="http://www.w3.org/2000/svg">
  <defs
     id="defs2" />
  <sodipodi:namedview
     id="namedview2"
     pagecolor="#ffffff"
     bordercolor="#cccccc"
     borderopacity="1"
     inkscape:showpageshadow="0"
     inkscape:pageopacity="1"
     inkscape:pagecheckerboard="0"
     inkscape:deskcolor="#d1d1d1"
     inkscape:document-units="pt"
     inkscape:zoom="1.4370117"
     inkscape:cx="341.68128"
     inkscape:cy="341.33333"
     inkscape:window-width="1200"
     inkscape:window-height="1130"
     inkscape:window-x="0"
     inkscape:window-y="25"
     inkscape:window-maximized="0"
     inkscape:current-layer="svg2" />
  <g
     transform="translate(0.000000,512.000000) scale(0.100000,-0.100000)"
     fill="#000000"
     stroke="none"
     id="g2"
     style="fill:#00627f;fill-opacity:1">
    <path
       d="M2420 4985 c-8 -2 -49 -9 -90 -15 -165 -27 -365 -112 -513 -218 -101 -72 -253 -229 -317 -328 -100 -152 -165 -319 -196 -497 -13 -73 -15 -153 -12 -426 4 -325 5 -339 31 -433 95 -355 305 -632 612 -807 86 -49 254 -114 355 -136 113 -25 353 -30 472 -11 539 88 959 504 1053 1043 21 121 21 655 0 777 -44 255 -158 476 -339 665 -176 181 -373 296 -616 356 -86 22 -135 27 -265 30 -88 2 -167 2 -175 0z"
       id="path1"
       style="fill:#00627f;fill-opacity:1" />
    <path
       d="M2345 1744 c-381 -30 -691 -89 -991 -189 -496 -166 -866 -416 -1115 -755 -108 -147 -139 -334 -76 -463 30 -61 94 -125 156 -156 104 -54 -11 -51 2241 -51 1819 0 2093 2 2143 15 174 45 275 161 285 324 10 171 -75 329 -293 546 -376 374 -987 627 -1710 710 -134 15 -536 27 -640 19z"
       id="path2"
       style="fill:#00627f;fill-opacity:1" />
  </g>
</svg>
