<?xml version="1.0" encoding="UTF-8" standalone="no"?>
<svg
   version="1.0"
   width="512.000000pt"
   height="512.000000pt"
   viewBox="0 0 512.000000 512.000000"
   preserveAspectRatio="xMidYMid meet"
   id="svg21"
   sodipodi:docname="clean-car.svg"
   inkscape:version="1.4 (e7c3feb1, 2024-10-09)"
   xmlns:inkscape="http://www.inkscape.org/namespaces/inkscape"
   xmlns:sodipodi="http://sodipodi.sourceforge.net/DTD/sodipodi-0.dtd"
   xmlns="http://www.w3.org/2000/svg"
   xmlns:svg="http://www.w3.org/2000/svg">
  <defs
     id="defs21" />
  <sodipodi:namedview
     id="namedview21"
     pagecolor="#ffffff"
     bordercolor="#cccccc"
     borderopacity="1"
     inkscape:showpageshadow="0"
     inkscape:pageopacity="1"
     inkscape:pagecheckerboard="0"
     inkscape:deskcolor="#d1d1d1"
     inkscape:document-units="pt"
     inkscape:zoom="1.434082"
     inkscape:cx="341.68199"
     inkscape:cy="341.33333"
     inkscape:window-width="1200"
     inkscape:window-height="1128"
     inkscape:window-x="0"
     inkscape:window-y="25"
     inkscape:window-maximized="0"
     inkscape:current-layer="svg21" />
  <g
     transform="translate(0.000000,512.000000) scale(0.100000,-0.100000)"
     fill="#000000"
     stroke="none"
     id="g21"
     style="fill:#00627f;fill-opacity:1">
    <path
       d="M2005 4834 c-724 -31 -1023 -52 -1545 -109 -380 -42 -432 -51 -447 -71 -19 -26 -13 -54 17 -75 24 -16 33 -16 210 6 356 45 781 84 1205 110 297 18 1027 40 1049 32 11 -4 16 -18 16 -42 l0 -35 55 0 55 0 0 40 0 40 88 0 c141 0 692 -19 892 -30 397 -23 821 -60 1210 -106 301 -36 292 -37 305 16 11 46 -12 60 -120 75 -343 48 -953 104 -1430 131 -259 14 -1345 27 -1560 18z"
       id="path1"
       style="fill:#00627f;fill-opacity:1" />
    <path
       d="M2112 4528 c-7 -7 -12 -42 -12 -88 0 -46 5 -81 12 -88 9 -9 124 -12 455 -12 507 0 463 -10 463 100 0 110 44 100 -463 100 -331 0 -446 -3 -455 -12z"
       id="path2"
       style="fill:#00627f;fill-opacity:1" />
    <path
       d="M4027 4518 c-9 -7 -21 -37 -27 -67 -17 -91 -70 -143 -161 -157 -55 -8 -69 -19 -69 -55 0 -34 23 -59 56 -59 35 0 95 -27 126 -57 28 -27 41 -59 52 -124 8 -43 42 -64 81 -49 24 9 28 18 40 92 11 68 95 137 167 138 34 0 58 24 58 59 0 36 -14 47 -70 55 -87 13 -160 89 -160 166 0 54 -53 87 -93 58z m63 -313 l-30 -29 -30 29 -30 29 31 32 31 32 28 -31 29 -32 -29 -30z"
       id="path3"
       style="fill:#00627f;fill-opacity:1" />
    <path
       d="M427 4252 c-10 -10 -17 -30 -17 -44 0 -105 -99 -209 -215 -224 -56 -8 -82 -34 -69 -71 11 -32 26 -40 85 -48 100 -13 183 -100 196 -205 5 -40 12 -55 31 -68 21 -14 27 -14 50 -1 20 11 28 27 38 78 8 35 25 81 38 102 32 48 98 87 162 95 56 8 84 27 84 60 0 33 -23 51 -77 59 -65 10 -114 37 -156 85 -32 38 -57 102 -57 149 0 46 -62 68 -93 33z m84 -371 l-46 -47 -46 45 -45 46 45 48 45 47 47 -46 46 -45 -46 -48z"
       id="path4"
       style="fill:#00627f;fill-opacity:1" />
    <path
       d="M3868 3320 c-169 -31 -292 -94 -409 -210 -72 -71 -94 -101 -136 -187 -68 -136 -87 -220 -81 -371 8 -191 71 -341 205 -483 205 -217 492 -291 774 -200 370 119 591 525 494 907 -34 133 -139 295 -249 385 -70 57 -193 120 -281 144 -71 19 -251 28 -317 15z m285 -146 c108 -28 241 -109 288 -176 38 -53 23 -72 -108 -135 l-116 -56 -225 -1 -226 -1 -120 60 c-106 52 -121 63 -124 87 -6 54 116 155 244 204 123 46 256 52 387 18z m-551 -438 l133 -64 35 -71 c19 -40 38 -75 44 -78 6 -4 6 1 1 13 -4 10 -10 42 -12 69 -8 88 57 175 143 191 81 15 171 -24 206 -90 21 -39 26 -98 13 -148 -15 -61 -10 -55 40 38 l40 75 140 66 c130 62 140 65 164 52 16 -9 30 -30 37 -54 18 -57 17 -239 -1 -305 -45 -170 -169 -322 -326 -399 -47 -23 -104 -45 -127 -48 -71 -9 -72 -6 -72 199 0 172 1 181 23 211 13 18 34 50 48 72 l23 40 -37 -32 c-82 -71 -195 -65 -273 15 l-27 27 28 -50 c16 -27 39 -63 52 -78 22 -27 23 -35 23 -199 0 -223 -6 -232 -138 -187 -170 57 -315 205 -378 389 -60 171 -33 410 45 410 11 0 79 -29 153 -64z"
       id="path5"
       style="fill:#00627f;fill-opacity:1" />
    <path
       d="M3829 3057 c-37 -13 -86 -36 -110 -51 l-43 -29 55 -28 c54 -27 55 -27 209 -22 85 3 173 1 195 -4 33 -8 49 -5 95 15 30 14 59 28 64 33 12 11 -68 59 -144 86 -90 32 -228 32 -321 0z"
       id="path6"
       style="fill:#00627f;fill-opacity:1" />
    <path
       d="M3955 2678 c-49 -26 -58 -69 -24 -112 24 -30 72 -35 107 -10 33 23 31 86 -4 113 -30 23 -49 26 -79 9z"
       id="path7"
       style="fill:#00627f;fill-opacity:1" />
    <path
       d="M3484 2624 c-8 -44 9 -157 35 -223 42 -111 126 -206 234 -264 l52 -28 3 102 c2 77 -1 106 -11 118 -8 9 -46 72 -85 140 l-71 124 -72 34 c-39 18 -73 33 -75 33 -2 0 -6 -16 -10 -36z"
       id="path8"
       style="fill:#00627f;fill-opacity:1" />
    <path
       d="M4408 2624 l-77 -37 -71 -123 c-39 -68 -75 -126 -80 -129 -6 -4 -10 -56 -10 -116 l0 -110 60 32 c115 61 223 206 250 333 6 30 10 84 8 120 l-3 66 -77 -36z"
       id="path9"
       style="fill:#00627f;fill-opacity:1" />
    <path
       d="M2210 3289 c-375 -21 -629 -59 -1348 -205 -419 -84 -625 -130 -650 -144 -21 -12 -48 -37 -61 -56 -28 -40 -44 -113 -27 -120 6 -2 688 -3 1514 -2 l1504 3 22 70 c43 134 116 254 218 361 l40 41 -34 6 c-72 13 -332 37 -498 47 -197 11 -479 11 -680 -1z"
       id="path10"
       style="fill:#00627f;fill-opacity:1" />
    <path
       d="M4765 2964 c84 -199 104 -364 66 -549 -42 -206 -164 -406 -315 -516 l-39 -29 40 0 c140 0 327 117 408 255 62 105 76 167 82 375 8 241 0 326 -35 380 -30 46 -98 84 -171 95 -40 7 -43 6 -36 -11z"
       id="path11"
       style="fill:#00627f;fill-opacity:1" />
    <path
       d="M112 2583 l3 -68 1504 0 1503 0 2 68 1 67 -1508 0 -1508 0 3 -67z"
       id="path12"
       style="fill:#00627f;fill-opacity:1" />
    <path
       d="M120 2357 c0 -151 126 -345 275 -424 140 -73 2 -67 1640 -70 l1470 -3 -45 37 c-141 116 -243 263 -296 428 l-22 70 -460 3 -461 2 -3 -159 c-3 -174 -7 -187 -72 -235 -27 -21 -36 -21 -761 -21 -725 0 -734 0 -761 21 -65 48 -69 61 -72 235 l-3 159 -215 0 -214 0 0 -43z"
       id="path13"
       style="fill:#00627f;fill-opacity:1" />
    <path
       d="M667 2393 c-11 -10 -8 -239 3 -267 l10 -26 705 0 705 0 11 26 c5 15 8 81 7 148 l-3 121 -716 3 c-393 1 -719 -1 -722 -5z"
       id="path14"
       style="fill:#00627f;fill-opacity:1" />
    <path
       d="M1913 1733 c2 -10 77 -191 165 -403 l161 -385 67 -333 68 -332 186 0 187 0 67 332 66 333 165 394 c91 217 165 398 165 402 0 5 -293 9 -651 9 -616 0 -651 -1 -646 -17z m847 -56 c63 -22 70 -50 70 -300 0 -314 3 -309 -228 -315 -192 -5 -237 1 -274 38 l-28 28 0 244 c0 269 2 277 64 304 40 17 345 18 396 1z"
       id="path15"
       style="fill:#00627f;fill-opacity:1" />
    <path
       d="M2410 1375 l0 -195 155 0 155 0 0 195 0 195 -155 0 -155 0 0 -195z"
       id="path16"
       style="fill:#00627f;fill-opacity:1" />
    <path
       d="M1581 1528 c-5 -13 -14 -42 -20 -65 -14 -52 -57 -89 -113 -98 -54 -9 -68 -20 -68 -56 0 -35 24 -59 58 -59 59 0 132 -73 132 -132 0 -32 24 -58 53 -58 35 0 48 14 58 61 6 24 17 54 25 67 20 31 73 62 106 62 34 0 58 24 58 59 0 36 -14 47 -68 56 -56 9 -99 46 -113 98 -22 81 -26 87 -64 87 -27 0 -37 -5 -44 -22z m62 -240 c-15 -17 -17 -17 -35 -1 -17 15 -17 17 -1 35 15 17 17 17 35 1 17 -15 17 -17 1 -35z"
       id="path17"
       style="fill:#00627f;fill-opacity:1" />
    <path
       d="M670 1154 c-85 -37 -140 -122 -148 -226 l-5 -68 368 0 367 0 -4 73 c-4 94 -40 157 -112 202 l-49 30 -191 2 c-154 2 -198 0 -226 -13z"
       id="path18"
       style="fill:#00627f;fill-opacity:1" />
    <path
       d="M4002 1144 c-87 -43 -131 -119 -132 -226 l0 -58 365 0 365 0 0 53 c0 107 -55 197 -144 238 -35 16 -67 19 -222 19 -174 0 -182 -1 -232 -26z"
       id="path19"
       style="fill:#00627f;fill-opacity:1" />
    <path
       d="M246 736 c-21 -8 -52 -27 -68 -43 -55 -52 -61 -74 -66 -250 l-5 -163 778 0 777 0 -4 169 -3 169 -30 43 c-16 23 -48 52 -70 63 -39 21 -53 21 -655 23 -505 2 -622 0 -654 -11z"
       id="path20"
       style="fill:#00627f;fill-opacity:1" />
    <path
       d="M3596 738 c-50 -14 -108 -72 -124 -124 -7 -25 -12 -101 -12 -188 l0 -146 776 0 777 0 -5 163 c-5 180 -11 201 -72 255 -20 17 -52 36 -73 41 -51 15 -1213 13 -1267 -1z"
       id="path21"
       style="fill:#00627f;fill-opacity:1" />
  </g>
</svg>
