<svg width="22" height="593" viewBox="0 0 22 593" fill="none" xmlns="http://www.w3.org/2000/svg">
<path fill-rule="evenodd" clip-rule="evenodd" d="M21.6227 8.42924C15.3038 5.33777 7.57776 11.6176 3.31272 15.8981C7.38551 6.87028 16.0467 1.5681 16.1428 1.50645L16.0991 1.43599C16.4312 1.19818 16.5274 0.740179 16.3176 0.379067C16.1079 0.0267621 15.6621 -0.0965457 15.295 0.0796071L15.2601 0.00914577C14.7881 0.29099 3.81963 6.99361 0.454793 18.6637C0.314957 19.1305 0.524713 19.6238 0.952966 19.8615C1.11029 19.9496 1.27634 19.9937 1.4424 19.9937C1.73081 19.9937 2.0105 19.8704 2.2115 19.6325C3.95072 17.6332 12.2623 8.49973 18.9396 9.41571C17.279 10.2436 15.1727 11.3622 14.3599 12.0844L15.5135 13.3879C16.3963 12.6041 19.7611 10.9218 21.6052 10.0586C21.9198 9.90892 22.1209 9.59187 22.1209 9.24837C22.1296 8.90484 21.9286 8.57896 21.6227 8.42924ZM4.59721 9.02816L3.5397 10.411C3.39113 10.2965 -0.017412 7.58371 6.69926e-05 1.25984C6.69926e-05 0.845882 0.244781 0.475964 0.611855 0.29981C0.987667 0.132465 1.42466 0.202927 1.73056 0.467158C2.13258 0.81946 2.92792 1.49765 3.77569 2.21107C5.19154 3.4089 6.79967 4.7741 7.5076 5.42587L6.33646 6.71178C5.66348 6.08641 4.07284 4.73884 2.66571 3.54983C2.35984 3.29441 2.07142 3.04779 1.80922 2.81879C2.24621 7.11693 4.49234 8.94889 4.59721 9.02816ZM11.5541 12.4103L13.0311 11.5031C13.4156 12.1196 14.613 13.6874 18.3974 17.1488C18.6858 17.413 18.7906 17.8182 18.6683 18.1881C18.5547 18.558 18.2313 18.8311 17.8467 18.8751C17.3923 18.9221 16.9524 18.9456 16.527 18.9456C11.1346 18.9456 8.0581 15.0702 7.91829 14.894L9.28171 13.8195C9.3953 13.9604 11.7463 16.8933 15.8715 17.184C13.6429 15.0614 12.1921 13.4584 11.5541 12.4103ZM19.4698 34.8726C13.9685 32.4107 5.36712 27.4185 5.94538 20.3639C5.97346 20.0223 6.20242 19.7157 6.52341 19.5999C6.84125 19.4758 7.20725 19.5502 7.45943 19.7918C8.92419 21.213 11.6962 23.7674 12.7403 24.3138L11.9508 25.8688C10.9889 25.3658 9.19315 23.7905 7.82729 22.529C9.39143 29.1346 20.8449 33.6464 23.3231 34.5586C23.6157 34.6616 23.8308 34.88 23.935 35.151C23.995 35.307 24.0142 35.479 23.9895 35.6586C23.9241 36.1469 23.5435 36.5222 23.0611 36.5594C11.0472 37.6125 0.883481 29.7259 0.452223 29.3842L0.504794 29.3259C0.209215 29.0446 0.162325 28.5812 0.412555 28.2568C0.670941 27.9293 1.12945 27.8542 1.46946 28.0804L1.51887 28.0139C1.61065 28.082 9.64515 34.3061 19.4698 34.8726ZM11.8926 27.327L13.2655 28.3873C14.0049 27.4092 14.9642 25.4669 16.1234 22.6059C17.3404 26.5746 15.4916 29.8351 15.3911 30.0122L15.3902 30.0138L16.877 30.9069C16.9895 30.7119 19.4643 26.4211 17.5165 21.3537C17.3629 20.954 17.1823 20.5491 16.9747 20.139C16.795 19.7935 16.4256 19.5882 16.0423 19.615C15.6558 19.6337 15.3188 19.8786 15.1785 20.2451C13.3424 25.0515 12.3242 26.743 11.8926 27.327ZM14.3103 36.641L12.6488 36.1467C12.6133 36.2738 11.7294 39.0463 7.91012 41.0092C8.02735 40.6804 8.15136 40.3202 8.27723 39.9405C8.8692 38.1887 9.54163 36.2072 9.87719 35.3489L8.26432 34.7128C7.91691 35.6135 7.23453 37.6178 6.63751 39.3809C6.28359 40.4351 5.94333 41.4274 5.76254 41.9327C5.62853 42.3156 5.72116 42.7517 6.01175 43.0443C6.30732 43.3258 6.738 43.422 7.12106 43.2725C12.979 41.0048 14.258 36.822 14.3103 36.641ZM21.6227 47.8699C15.3038 44.7781 7.57776 51.0579 3.31272 55.3385C7.38551 46.3107 16.0467 41.0084 16.1428 40.9468L16.0991 40.8764C16.4312 40.6387 16.5274 40.1807 16.3176 39.8197C16.1079 39.4672 15.6621 39.3439 15.295 39.5201L15.2601 39.4496C14.7881 39.7315 3.81963 46.4339 0.454793 58.1043C0.314957 58.571 0.524713 59.0644 0.952966 59.3021C1.11029 59.39 1.27634 59.4341 1.4424 59.4341C1.73081 59.4341 2.0105 59.3109 2.2115 59.0732C3.95072 57.0738 12.2623 47.9403 18.9396 48.8562C17.279 49.684 15.1727 50.8027 14.3599 51.5251L15.5135 52.8283C16.3963 52.0447 19.7611 50.3622 21.6052 49.4991C21.9198 49.3492 22.1209 49.0324 22.1209 48.6889C22.1296 48.3454 21.9286 48.0194 21.6227 47.8699ZM4.59721 48.4686L3.5397 49.8513C3.39113 49.7368 -0.017412 47.0243 6.69926e-05 40.7003C6.69926e-05 40.2864 0.244781 39.9163 0.611855 39.7403C0.987667 39.5729 1.42466 39.6434 1.73056 39.9075C2.13258 40.2598 2.92792 40.938 3.77569 41.6516C5.19154 42.8495 6.79967 44.2147 7.5076 44.8663L6.33646 46.1524C5.66348 45.5271 4.07284 44.1793 2.66571 42.9902C2.35984 42.735 2.07142 42.4881 1.80922 42.2591C2.24621 46.5575 4.49234 48.3895 4.59721 48.4686ZM11.5541 51.8507L13.0311 50.9434C13.4156 51.56 14.613 53.128 18.3974 56.5892C18.6858 56.8536 18.7906 57.2587 18.6683 57.6284C18.5547 57.9985 18.2313 58.2717 17.8467 58.3154C17.3923 58.3627 16.9524 58.3862 16.527 58.3862C11.1346 58.3862 8.0581 54.5107 7.91829 54.3346L9.28171 53.26C9.3953 53.4008 11.7463 56.334 15.8715 56.6246C13.6429 54.502 12.1921 52.899 11.5541 51.8507ZM19.4688 74.3132C13.9675 71.8512 5.36613 66.859 5.94444 59.8043C5.97247 59.4628 6.20143 59.1562 6.52242 59.0406C6.84026 58.9161 7.20626 58.9909 7.45848 59.2322C8.92321 60.6535 11.6952 63.2078 12.7393 63.7544L11.9498 65.3093C10.988 64.8064 9.19216 63.2308 7.8263 61.9694C9.39045 68.5752 20.8439 73.0868 23.3221 73.9992C23.6148 74.1021 23.8299 74.3204 23.934 74.5915C23.994 74.7474 24.0132 74.9195 23.9885 75.0992C23.9232 75.5874 23.5425 75.9627 23.0601 75.9997C11.0462 77.0528 0.882505 69.1664 0.451248 68.8245L0.503819 68.7665C0.208239 68.485 0.161346 68.0218 0.411579 67.6974C0.669962 67.3698 1.12848 67.2947 1.46848 67.5209L1.5179 67.4545C1.60967 67.5225 9.64416 73.7463 19.4688 74.3132ZM11.8917 66.7675L13.2646 67.8278C14.004 66.8498 14.9632 64.9074 16.1224 62.0465C17.339 66.0138 15.4921 69.273 15.3903 69.4523L15.3893 69.4543L16.876 70.3472C16.9885 70.1524 19.4633 65.8615 17.5156 60.7942C17.362 60.3942 17.1814 59.9895 16.9737 59.5792C16.7941 59.2338 16.4246 59.0286 16.0413 59.0557C15.6549 59.0739 15.3178 59.3188 15.1775 59.6854C13.3414 64.4919 12.3233 66.1835 11.8917 66.7675ZM14.3093 76.0816L12.6478 75.587C12.6124 75.7143 11.7285 78.4868 7.90917 80.45C8.02636 80.1208 8.15037 79.7606 8.27624 79.381C8.86825 77.6293 9.54064 75.6475 9.87624 74.7895L8.26333 74.1534C7.91596 75.0539 7.23355 77.0584 6.63657 78.8212C6.28264 79.8755 5.94234 80.8682 5.76155 81.3731C5.62755 81.756 5.72021 82.1921 6.01077 82.4847C6.30637 82.7662 6.73705 82.8624 7.12007 82.7129C12.978 80.4452 14.257 76.2625 14.3093 76.0816ZM21.6227 91.1686C15.3038 88.0772 7.57776 94.3571 3.31272 98.6376C7.38551 89.6098 16.0467 84.3075 16.1428 84.2459L16.0991 84.1755C16.4312 83.9374 16.5274 83.4794 16.3176 83.1184C16.1079 82.7662 15.6621 82.6429 15.295 82.8191L15.2601 82.7487C14.7881 83.0302 3.81963 89.733 0.454793 101.403C0.314957 101.87 0.524713 102.363 0.952966 102.601C1.11029 102.689 1.27634 102.733 1.4424 102.733C1.73081 102.733 2.0105 102.61 2.2115 102.372C3.95072 100.373 12.2623 91.239 18.9396 92.155C17.279 92.9831 15.1727 94.1014 14.3599 94.8238L15.5135 96.1274C16.3963 95.3434 19.7611 93.6613 21.6052 92.7978C21.9198 92.6484 22.1209 92.3311 22.1209 91.9876C22.1296 91.6441 21.9286 91.3185 21.6227 91.1686ZM4.59721 91.7674L3.5397 93.1505C3.39113 93.036 -0.017412 90.323 6.69926e-05 83.999C6.69926e-05 83.5852 0.244781 83.2154 0.611855 83.0393C0.987667 82.8719 1.42466 82.9423 1.73056 83.2067C2.13258 83.5589 2.92792 84.2372 3.77569 84.9504C5.19154 86.1482 6.79967 87.5135 7.5076 88.1651L6.33646 89.4512C5.66348 88.8258 4.07284 87.4781 2.66571 86.2894C2.35984 86.0337 2.07142 85.7872 1.80922 85.5583C2.24621 89.8563 4.49234 91.6882 4.59721 91.7674ZM11.5541 95.1498L13.0311 94.2426C13.4156 94.8592 14.613 96.4268 18.3974 99.8883C18.6858 100.152 18.7906 100.557 18.6683 100.928C18.5547 101.297 18.2313 101.57 17.8467 101.615C17.3923 101.661 16.9524 101.685 16.527 101.685C11.1346 101.685 8.0581 97.8095 7.91829 97.6334L9.28171 96.5588C9.3953 96.6999 11.7463 99.6327 15.8715 99.9233C13.6429 97.8007 12.1921 96.1978 11.5541 95.1498ZM5.94444 103.103C5.36613 110.158 13.9675 115.15 19.4688 117.612C9.6442 117.045 1.60969 110.821 1.51792 110.753L1.4685 110.82C1.1285 110.593 0.669986 110.669 0.411603 110.996C0.16137 111.321 0.208263 111.784 0.503842 112.065L0.451271 112.123C0.882529 112.465 11.0462 120.352 23.0601 119.298C23.5426 119.261 23.9232 118.886 23.9886 118.398C24.0133 118.218 23.994 118.046 23.9341 117.89C23.8299 117.619 23.6148 117.401 23.3221 117.298C20.8439 116.386 9.39049 111.874 7.82634 105.268C9.1922 106.53 10.988 108.105 11.9499 108.608L12.7394 107.053C11.6952 106.507 8.92325 103.952 7.45848 102.531C7.2063 102.29 6.8403 102.215 6.52246 102.339C6.20147 102.455 5.97251 102.762 5.94444 103.103ZM11.8917 110.066L13.2646 111.127C14.004 110.149 14.9633 108.206 16.1224 105.345C17.3385 109.311 15.4936 112.569 15.3904 112.751L15.3893 112.753L16.8761 113.646C16.9926 113.444 19.4617 109.156 17.5156 104.093C17.362 103.693 17.1814 103.288 16.9738 102.878C16.7941 102.533 16.4247 102.327 16.0413 102.354C15.6549 102.373 15.3179 102.618 15.1775 102.984C13.3415 107.791 12.3233 109.482 11.8917 110.066ZM12.6478 118.886L14.3094 119.38C14.2571 119.561 12.978 123.744 7.12011 126.012C6.73709 126.161 6.30641 126.065 6.01081 125.783C5.72021 125.491 5.62759 125.055 5.76159 124.672C5.94238 124.167 6.28268 123.175 6.63661 122.12C7.23359 120.357 7.916 118.353 8.26337 117.452L9.87628 118.088C9.54068 118.946 8.86829 120.928 8.27628 122.68C8.15041 123.059 8.0264 123.42 7.90921 123.749C11.7285 121.786 12.6124 119.013 12.6478 118.886ZM21.6227 130.609C15.3038 127.518 7.57776 133.797 3.31272 138.078C7.38551 129.05 16.0467 123.748 16.1428 123.686L16.0991 123.616C16.4312 123.378 16.5274 122.92 16.3176 122.559C16.1079 122.207 15.6621 122.083 15.295 122.259L15.2601 122.189C14.7881 122.471 3.81963 129.173 0.454793 140.843C0.314957 141.311 0.524713 141.804 0.952966 142.041C1.11029 142.13 1.27634 142.174 1.4424 142.174C1.73081 142.174 2.0105 142.05 2.2115 141.812C3.95072 139.813 12.2623 130.679 18.9396 131.596C17.279 132.424 15.1727 133.542 14.3599 134.264L15.5135 135.568C16.3963 134.784 19.7611 133.102 21.6052 132.239C21.9198 132.089 22.1209 131.772 22.1209 131.428C22.1296 131.085 21.9286 130.759 21.6227 130.609ZM4.59721 131.208L3.5397 132.591C3.39113 132.476 -0.017412 129.764 6.69926e-05 123.44C6.69926e-05 123.026 0.244781 122.656 0.611855 122.48C0.987667 122.312 1.42466 122.383 1.73056 122.647C2.13258 122.999 2.92792 123.678 3.77569 124.391C5.19154 125.589 6.79967 126.954 7.5076 127.606L6.33646 128.892C5.66348 128.266 4.07284 126.919 2.66571 125.73C2.35984 125.474 2.07142 125.228 1.80922 124.999C2.24621 129.297 4.49234 131.129 4.59721 131.208ZM11.5541 134.59L13.0311 133.683C13.4156 134.3 14.613 135.867 18.3974 139.329C18.6858 139.593 18.7906 139.998 18.6683 140.368C18.5547 140.738 18.2313 141.011 17.8467 141.055C17.3923 141.102 16.9524 141.125 16.527 141.125C11.1346 141.125 8.0581 137.25 7.91829 137.074L9.28171 136C9.3953 136.14 11.7463 139.073 15.8715 139.364C13.6429 137.241 12.1921 135.638 11.5541 134.59ZM19.4698 157.052C13.9685 154.591 5.36712 149.599 5.94538 142.544C5.97346 142.202 6.20242 141.895 6.52341 141.78C6.84125 141.656 7.20725 141.73 7.45943 141.972C8.92419 143.393 11.6962 145.947 12.7403 146.494L11.9508 148.048C10.9889 147.546 9.19315 145.97 7.82729 144.709C9.39143 151.314 20.8449 155.826 23.3231 156.738C23.6157 156.841 23.8308 157.06 23.935 157.331C23.995 157.487 24.0142 157.659 23.9895 157.838C23.9241 158.327 23.5435 158.702 23.0611 158.739C11.0472 159.792 0.883481 151.906 0.452223 151.564L0.504794 151.506C0.209215 151.225 0.162325 150.761 0.412555 150.437C0.670941 150.109 1.12945 150.034 1.46946 150.26L1.51887 150.194C1.61065 150.262 9.64515 156.486 19.4698 157.052ZM11.8926 149.507L13.2655 150.567C14.0049 149.589 14.9642 147.647 16.1234 144.786C17.34 148.753 15.4929 152.013 15.3913 152.192L15.3902 152.194L16.877 153.087L16.8772 153.086C16.9928 152.886 19.463 148.598 17.5165 143.533C17.3629 143.134 17.1823 142.729 16.9747 142.319C16.795 141.973 16.4256 141.768 16.0423 141.795C15.6558 141.814 15.3188 142.058 15.1785 142.425C13.3424 147.231 12.3242 148.923 11.8926 149.507ZM14.3103 158.821L12.6488 158.327C12.6133 158.454 11.7294 161.226 7.91012 163.189C8.02735 162.86 8.15136 162.5 8.27723 162.12C8.8692 160.368 9.54163 158.387 9.87719 157.529L8.26432 156.893C7.91691 157.793 7.23453 159.798 6.63751 161.561C6.28359 162.615 5.94333 163.607 5.76254 164.112C5.62853 164.496 5.72116 164.932 6.01175 165.224C6.30732 165.505 6.738 165.602 7.12106 165.452C12.979 163.185 14.258 159.002 14.3103 158.821ZM21.6227 173.908C15.3038 170.816 7.57776 177.096 3.31272 181.377C7.38551 172.349 16.0467 167.047 16.1428 166.985L16.0991 166.915C16.4312 166.677 16.5274 166.219 16.3176 165.858C16.1079 165.505 15.6621 165.382 15.295 165.558L15.2601 165.488C14.7881 165.77 3.81963 172.472 0.454793 184.142C0.314957 184.609 0.524713 185.102 0.952966 185.34C1.11029 185.428 1.27634 185.472 1.4424 185.472C1.73081 185.472 2.0105 185.349 2.2115 185.111C3.95072 183.112 12.2623 173.978 18.9396 174.895C17.279 175.722 15.1727 176.841 14.3599 177.563L15.5135 178.867C16.3963 178.083 19.7611 176.401 21.6052 175.537C21.9198 175.388 22.1209 175.071 22.1209 174.727C22.1296 174.384 21.9286 174.058 21.6227 173.908ZM4.59721 174.507L3.5397 175.89C3.39113 175.775 -0.017412 173.063 6.69926e-05 166.739C6.69926e-05 166.325 0.244781 165.955 0.611855 165.778C0.987667 165.611 1.42466 165.681 1.73056 165.946C2.13258 166.298 2.92792 166.976 3.77569 167.69C5.19154 168.888 6.79967 170.253 7.5076 170.905L6.33646 172.19C5.66348 171.565 4.07284 170.218 2.66571 169.029C2.35984 168.773 2.07142 168.526 1.80922 168.297C2.24621 172.595 4.49234 174.427 4.59721 174.507ZM13.0311 176.982L11.5541 177.889C12.1921 178.937 13.6429 180.54 15.8715 182.662C11.7463 182.372 9.3953 179.439 9.28171 179.298L7.91829 180.373C8.0581 180.549 11.1346 184.424 16.527 184.424C16.9524 184.424 17.3923 184.401 17.8467 184.354C18.2313 184.31 18.5547 184.037 18.6683 183.667C18.7906 183.297 18.6858 182.891 18.3974 182.627C14.613 179.166 13.4156 177.598 13.0311 176.982ZM5.94538 185.843C5.36708 192.897 13.9685 197.889 19.4698 200.351C9.64515 199.785 1.61063 193.56 1.51886 193.492L1.46944 193.559C1.12944 193.333 0.670929 193.408 0.412543 193.735C0.162313 194.06 0.209203 194.523 0.504782 194.804L0.452211 194.863C0.883469 195.204 11.0472 203.091 23.0611 202.038C23.5435 202.001 23.9241 201.625 23.9895 201.137C24.0142 200.957 23.995 200.786 23.935 200.629C23.8308 200.358 23.6157 200.14 23.3231 200.037C20.8449 199.125 9.39143 194.613 7.82729 188.008C9.19315 189.269 10.9889 190.844 11.9508 191.347L12.7403 189.792C11.6961 189.246 8.92416 186.692 7.45943 185.27C7.20725 185.029 6.84125 184.954 6.52341 185.078C6.20238 185.194 5.97346 185.501 5.94538 185.843ZM13.2655 193.866L11.8926 192.805C12.3242 192.221 13.3424 190.53 15.1785 185.724C15.3188 185.357 15.6558 185.112 16.0423 185.094C16.4256 185.067 16.795 185.272 16.9747 185.618C17.1823 186.027 17.3629 186.433 17.5165 186.832C19.4632 191.897 16.9921 196.186 16.877 196.385L15.3902 195.492L15.391 195.491L15.3913 195.49C15.4954 195.307 17.3392 192.049 16.1233 188.084C14.9642 190.945 14.0049 192.888 13.2655 193.866ZM12.6488 201.625L14.3103 202.119C14.258 202.3 12.979 206.484 7.12106 208.751C6.738 208.901 6.30732 208.804 6.01175 208.523C5.72116 208.23 5.62853 207.794 5.76254 207.411C5.94333 206.906 6.28359 205.914 6.63751 204.859C7.23453 203.096 7.91691 201.092 8.26432 200.191L9.87719 200.827C9.54163 201.686 8.8692 203.667 8.27723 205.419C8.15136 205.799 8.02735 206.159 7.91012 206.488C11.7294 204.525 12.6133 201.752 12.6488 201.625ZM21.6227 213.349C15.3038 210.257 7.57776 216.537 3.31272 220.817C7.38551 211.789 16.0467 206.487 16.1428 206.425L16.0991 206.355C16.4312 206.117 16.5274 205.659 16.3176 205.298C16.1079 204.946 15.6621 204.823 15.295 204.999L15.2601 204.928C14.7881 205.21 3.81963 211.913 0.454793 223.583C0.314957 224.05 0.524713 224.543 0.952966 224.781C1.11029 224.869 1.27634 224.913 1.4424 224.913C1.73081 224.913 2.0105 224.79 2.2115 224.552C3.95072 222.553 12.2623 213.419 18.9396 214.335C17.279 215.163 15.1727 216.281 14.3599 217.004L15.5135 218.307C16.3963 217.523 19.7611 215.841 21.6052 214.978C21.9198 214.828 22.1209 214.511 22.1209 214.168C22.1296 213.824 21.9286 213.498 21.6227 213.349ZM4.59721 213.947L3.5397 215.33C3.39113 215.216 -0.017412 212.503 6.69926e-05 206.179C6.69926e-05 205.765 0.244781 205.395 0.611855 205.219C0.987667 205.052 1.42466 205.122 1.73056 205.386C2.13258 205.739 2.92792 206.417 3.77569 207.13C5.19154 208.328 6.79967 209.693 7.5076 210.345L6.33646 211.631C5.66348 211.006 4.07284 209.658 2.66571 208.469C2.35984 208.214 2.07142 207.967 1.80922 207.738C2.24621 212.036 4.49234 213.868 4.59721 213.947ZM11.5541 217.329L13.0311 216.422C13.4156 217.039 14.613 218.607 18.3974 222.068C18.6858 222.332 18.7906 222.737 18.6683 223.107C18.5547 223.477 18.2313 223.75 17.8467 223.794C17.3923 223.841 16.9524 223.865 16.527 223.865C11.1346 223.865 8.0581 219.989 7.91829 219.813L9.28171 218.739C9.3953 218.879 11.7463 221.813 15.8715 222.103C13.6429 219.981 12.1921 218.378 11.5541 217.329ZM19.4695 239.792C13.9682 237.33 5.36684 232.338 5.94515 225.283C5.97318 224.941 6.20214 224.635 6.52313 224.519C6.84097 224.395 7.20697 224.469 7.45919 224.711C8.92392 226.132 11.6959 228.686 12.74 229.233L11.9505 230.788C10.9887 230.285 9.19288 228.71 7.82701 227.448C9.39116 234.054 20.8446 238.565 23.3228 239.478C23.6155 239.581 23.8306 239.799 23.9347 240.07C23.9947 240.226 24.0139 240.398 23.9893 240.578C23.9239 241.066 23.5433 241.441 23.0608 241.478C11.0469 242.532 0.883216 234.645 0.451958 234.303L0.504529 234.245C0.20895 233.964 0.162057 233.5 0.41229 233.176C0.670673 232.849 1.12919 232.773 1.46919 233L1.51861 232.933C1.61038 233.001 9.64487 239.225 19.4695 239.792ZM11.8923 232.246L13.2652 233.307C14.0046 232.329 14.9639 230.386 16.1231 227.525C17.3396 231.492 15.493 234.751 15.391 234.931L15.39 234.933L16.8767 235.826C16.9892 235.631 19.464 231.34 17.5163 226.273C17.3626 225.873 17.182 225.468 16.9744 225.058C16.7948 224.712 16.4253 224.507 16.042 224.534C15.6555 224.553 15.3185 224.798 15.1782 225.164C13.3422 229.971 12.3239 231.662 11.8923 232.246ZM14.31 241.56L12.6485 241.066C12.6131 241.193 11.7292 243.966 7.90988 245.928C8.02707 245.6 8.15108 245.239 8.27695 244.86C8.86896 243.108 9.54135 241.126 9.87695 240.268L8.26404 239.632C7.91668 240.533 7.23426 242.537 6.63728 244.3C6.28335 245.354 5.94305 246.347 5.76226 246.852C5.62826 247.235 5.72092 247.671 6.01148 247.963C6.30708 248.245 6.73776 248.341 7.12078 248.192C12.9787 245.924 14.2578 241.741 14.31 241.56ZM21.6227 253.647C15.3038 250.555 7.57776 256.835 3.31272 261.115C7.38551 252.087 16.0467 246.785 16.1428 246.723L16.0991 246.653C16.4312 246.415 16.5274 245.957 16.3176 245.596C16.1079 245.244 15.6621 245.12 15.295 245.297L15.2601 245.226C14.7881 245.508 3.81963 252.211 0.454793 263.881C0.314957 264.348 0.524713 264.841 0.952966 265.079C1.11029 265.167 1.27634 265.211 1.4424 265.211C1.73081 265.211 2.0105 265.088 2.2115 264.85C3.95072 262.85 12.2623 253.717 18.9396 254.633C17.279 255.461 15.1727 256.579 14.3599 257.302L15.5135 258.605C16.3963 257.821 19.7611 256.139 21.6052 255.276C21.9198 255.126 22.1209 254.809 22.1209 254.466C22.1296 254.122 21.9286 253.796 21.6227 253.647ZM4.59721 254.245L3.5397 255.628C3.39113 255.514 -0.017412 252.801 6.69926e-05 246.477C6.69926e-05 246.063 0.244781 245.693 0.611855 245.517C0.987667 245.35 1.42466 245.42 1.73056 245.684C2.13258 246.037 2.92792 246.715 3.77569 247.428C5.19154 248.626 6.79967 249.991 7.5076 250.643L6.33646 251.929C5.66348 251.304 4.07284 249.956 2.66571 248.767C2.35984 248.512 2.07142 248.265 1.80922 248.036C2.24621 252.334 4.49234 254.166 4.59721 254.245ZM11.5541 257.627L13.0311 256.72C13.4156 257.337 14.613 258.905 18.3974 262.366C18.6858 262.63 18.7906 263.035 18.6683 263.405C18.5547 263.775 18.2313 264.048 17.8467 264.092C17.3923 264.139 16.9524 264.163 16.527 264.163C11.1346 264.163 8.0581 260.287 7.91829 260.111L9.28171 259.037C9.3953 259.177 11.7463 262.111 15.8715 262.401C13.6429 260.279 12.1921 258.676 11.5541 257.627ZM5.94538 265.581C5.36708 272.636 13.9685 277.628 19.4697 280.09C9.64511 279.523 1.61062 273.299 1.51885 273.231L1.46943 273.298C1.12943 273.071 0.670914 273.147 0.412531 273.474C0.162297 273.799 0.209191 274.262 0.50477 274.543L0.452199 274.601C0.883457 274.943 11.0472 282.83 23.0611 281.776C23.5435 281.739 23.9241 281.364 23.9895 280.876C24.0142 280.696 23.9949 280.524 23.935 280.368C23.8308 280.097 23.6157 279.879 23.323 279.776C20.8449 278.863 9.39139 274.352 7.82729 267.746C9.19311 269.008 10.9889 270.583 11.9508 271.086L12.7403 269.531C11.6961 268.984 8.92416 266.43 7.45943 265.009C7.20721 264.768 6.84121 264.693 6.52337 264.817C6.20238 264.933 5.97346 265.239 5.94538 265.581ZM13.2655 273.605L11.8926 272.544C12.3242 271.96 13.3424 270.269 15.1784 265.462C15.3187 265.096 15.6558 264.851 16.0423 264.832C16.4256 264.805 16.795 265.01 16.9746 265.356C17.1823 265.766 17.3629 266.171 17.5165 266.571C19.4636 271.636 16.9909 275.926 16.877 276.124L15.3902 275.231L15.3913 275.229C15.4948 275.046 17.3394 271.789 16.1233 267.823C14.9641 270.684 14.0049 272.627 13.2655 273.605ZM14.3103 281.858L12.6488 281.364C12.6133 281.491 11.7294 284.264 7.91012 286.226C8.02731 285.897 8.15132 285.537 8.27719 285.158C8.8692 283.406 9.54159 281.424 9.87715 280.566L8.26428 279.93C7.91691 280.831 7.23449 282.835 6.63751 284.598C6.28355 285.652 5.94329 286.645 5.7625 287.15C5.6285 287.533 5.72112 287.969 6.01171 288.261C6.30728 288.543 6.738 288.639 7.12102 288.49C12.9789 286.222 14.258 282.039 14.3103 281.858ZM3.31272 300.556C7.57776 296.275 15.3038 289.996 21.6227 293.087C21.9286 293.237 22.1296 293.562 22.1209 293.906C22.1209 294.249 21.9198 294.567 21.6052 294.716C19.7611 295.58 16.3963 297.262 15.5135 298.046L14.3599 296.742C15.1727 296.02 17.279 294.901 18.9396 294.073C12.2623 293.157 3.95072 302.291 2.2115 304.29C2.0105 304.528 1.73081 304.651 1.4424 304.651C1.27634 304.651 1.11029 304.607 0.952966 304.519C0.524713 304.281 0.314957 303.788 0.454793 303.321C3.81963 291.651 14.7881 284.949 15.2601 284.667L15.295 284.737C15.6621 284.561 16.1079 284.685 16.3176 285.037C16.5274 285.398 16.4312 285.856 16.0991 286.093L16.1428 286.164C16.0467 286.226 7.38551 291.528 3.31272 300.556ZM4.59721 293.686L3.5397 295.069C3.39113 294.954 -0.017412 292.241 6.69926e-05 285.918C6.69926e-05 285.503 0.244781 285.134 0.611855 284.958C0.987667 284.79 1.42466 284.861 1.73056 285.125C2.13258 285.477 2.92792 286.156 3.77569 286.869C5.19154 288.067 6.79967 289.432 7.5076 290.083L6.33646 291.37C5.66348 290.744 4.07284 289.396 2.66571 288.208C2.35984 287.952 2.07142 287.706 1.80922 287.477C2.24621 291.775 4.49234 293.607 4.59721 293.686ZM13.0311 296.161L11.5541 297.068C12.1921 298.116 13.6429 299.719 15.8715 301.842C11.7463 301.551 9.3953 298.618 9.28171 298.477L7.91829 299.552C8.0581 299.728 11.1346 303.603 16.527 303.603C16.9524 303.603 17.3923 303.58 17.8467 303.533C18.2313 303.489 18.5547 303.216 18.6683 302.846C18.7906 302.476 18.6858 302.071 18.3974 301.807C14.613 298.345 13.4156 296.777 13.0311 296.161ZM5.94526 305.021C5.36696 312.076 13.9683 317.068 19.4696 319.53C9.64503 318.964 1.61051 312.74 1.51874 312.672L1.46932 312.738C1.12932 312.512 0.670807 312.587 0.412424 312.915C0.162191 313.239 0.209084 313.702 0.504664 313.984L0.452092 314.042C0.88335 314.384 11.0471 322.27 23.0609 321.217C23.5434 321.18 23.924 320.805 23.9894 320.316C24.0141 320.137 23.9949 319.964 23.9349 319.809C23.8307 319.537 23.6156 319.319 23.3229 319.216C20.8447 318.304 9.39131 313.792 7.82717 307.186C9.19303 308.448 10.9888 310.023 11.9507 310.526L12.7402 308.972C11.696 308.425 8.92404 305.871 7.45931 304.449C7.20713 304.208 6.84113 304.134 6.52325 304.258C6.20226 304.373 5.97334 304.68 5.94526 305.021ZM11.8925 311.985L13.2654 313.045C14.0048 312.067 14.964 310.124 16.1232 307.264C17.3395 311.23 15.4939 314.488 15.3912 314.669L15.3901 314.671L16.8768 315.565L16.8773 315.564C16.9992 315.352 19.4602 311.068 17.5164 306.011C17.3628 305.612 17.1822 305.207 16.9746 304.797C16.7949 304.451 16.4255 304.246 16.0421 304.273C15.6556 304.291 15.3186 304.536 15.1783 304.902C13.3423 309.709 12.324 311.401 11.8925 311.985ZM12.6487 320.804L14.3101 321.299C14.2579 321.48 12.9788 325.662 7.12094 327.93C6.73788 328.079 6.3072 327.983 6.01164 327.702C5.72104 327.409 5.62842 326.973 5.76242 326.59C5.94321 326.085 6.28347 325.093 6.6374 324.039C7.23441 322.275 7.91679 320.271 8.2642 319.371L9.87707 320.007C9.54151 320.865 8.86908 322.846 8.27711 324.598C8.15124 324.978 8.02723 325.338 7.91 325.667C11.7293 323.704 12.6132 320.931 12.6487 320.804ZM4.31272 342.898C8.57776 338.618 16.3038 332.338 22.6227 335.429C22.9286 335.579 23.1296 335.905 23.1209 336.248C23.1209 336.592 22.9198 336.909 22.6052 337.059C20.7611 337.922 17.3963 339.604 16.5135 340.388L15.3599 339.084C16.1727 338.362 18.279 337.244 19.9396 336.416C13.2623 335.5 4.95072 344.633 3.2115 346.633C3.0105 346.87 2.73081 346.994 2.4424 346.994C2.27634 346.994 2.11029 346.95 1.95297 346.862C1.52471 346.624 1.31496 346.131 1.45479 345.664C4.81963 333.994 15.7881 327.291 16.2601 327.009L16.295 327.08C16.6621 326.903 17.1079 327.027 17.3176 327.379C17.5274 327.74 17.4312 328.198 17.0991 328.436L17.1428 328.506C17.0467 328.568 8.38551 333.87 4.31272 342.898ZM4.5397 337.411L5.59721 336.028C5.49234 335.949 3.24621 334.117 2.80922 329.819C3.07142 330.048 3.35984 330.294 3.66571 330.55C5.07284 331.739 6.66348 333.086 7.33646 333.712L8.5076 332.426C7.79967 331.774 6.19154 330.409 4.77569 329.211C3.92792 328.498 3.13258 327.819 2.73056 327.467C2.42466 327.203 1.98767 327.132 1.61186 327.3C1.24478 327.476 1.00007 327.846 1.00007 328.26C0.982588 334.584 4.39113 337.296 4.5397 337.411ZM14.0311 338.503L12.5541 339.41C13.1921 340.458 14.6429 342.061 16.8715 344.184C12.7463 343.893 10.3953 340.96 10.2817 340.819L8.91829 341.894C9.0581 342.07 12.1346 345.946 17.527 345.946C17.9524 345.946 18.3923 345.922 18.8467 345.875C19.2313 345.831 19.5547 345.558 19.6683 345.188C19.7906 344.818 19.6858 344.413 19.3974 344.149C15.613 340.687 14.4156 339.12 14.0311 338.503ZM6.94538 347.364C6.36712 354.419 14.9685 359.411 20.4698 361.873C10.6452 361.306 2.61065 355.082 2.51887 355.014L2.46946 355.08C2.12945 354.854 1.67094 354.929 1.41255 355.257C1.16233 355.581 1.20921 356.045 1.50479 356.326L1.45222 356.384C1.88348 356.726 12.0472 364.612 24.0611 363.559C24.5435 363.522 24.9241 363.147 24.9895 362.659C25.0142 362.479 24.995 362.307 24.935 362.151C24.8308 361.88 24.6157 361.662 24.3231 361.559C21.8449 360.646 10.3914 356.135 8.82729 349.529C10.1932 350.79 11.9889 352.366 12.9508 352.869L13.7403 351.314C12.6962 350.767 9.92419 348.213 8.45943 346.792C8.20725 346.55 7.84125 346.476 7.52341 346.6C7.20242 346.716 6.97346 347.022 6.94538 347.364ZM14.2655 355.387L12.8926 354.327C13.3242 353.743 14.3424 352.052 16.1785 347.245C16.3188 346.879 16.6558 346.634 17.0423 346.615C17.4256 346.588 17.795 346.793 17.9747 347.139C18.1823 347.549 18.3629 347.954 18.5165 348.354C20.4643 353.421 17.9895 357.712 17.877 357.907L16.3902 357.014L16.3911 357.012C16.4916 356.835 18.3404 353.575 17.1234 349.606C15.9642 352.467 15.0049 354.409 14.2655 355.387ZM13.6488 363.147L15.3103 363.641C15.258 363.822 13.979 368.005 8.12106 370.273C7.738 370.422 7.30732 370.326 7.01175 370.044C6.72116 369.752 6.62853 369.316 6.76254 368.933C6.94333 368.427 7.28359 367.435 7.63751 366.381C8.23453 364.618 8.91691 362.613 9.26432 361.713L10.8772 362.349C10.5416 363.207 9.8692 365.189 9.27723 366.941C9.15136 367.32 9.02735 367.68 8.91012 368.009C12.7294 366.046 13.6133 363.274 13.6488 363.147ZM4.31272 382.338C8.57776 378.058 16.3038 371.778 22.6227 374.87C22.9286 375.019 23.1296 375.345 23.1209 375.689C23.1209 376.032 22.9198 376.349 22.6052 376.499C20.7611 377.362 17.3963 379.045 16.5135 379.828L15.3599 378.525C16.1727 377.803 18.279 376.684 19.9396 375.856C13.2623 374.94 4.95072 384.074 3.2115 386.073C3.0105 386.311 2.73081 386.434 2.4424 386.434C2.27634 386.434 2.11029 386.39 1.95297 386.302C1.52471 386.064 1.31496 385.571 1.45479 385.104C4.81963 373.434 15.7881 366.731 16.2601 366.45L16.295 366.52C16.6621 366.344 17.1079 366.467 17.3176 366.82C17.5274 367.181 17.4312 367.639 17.0991 367.876L17.1428 367.947C17.0467 368.008 8.38551 373.311 4.31272 382.338ZM4.5397 376.851L5.59721 375.469C5.49234 375.39 3.24621 373.558 2.80922 369.259C3.07142 369.488 3.35984 369.735 3.66571 369.99C5.07284 371.179 6.66348 372.527 7.33646 373.152L8.5076 371.866C7.79967 371.215 6.19154 369.849 4.77569 368.652C3.92792 367.938 3.13258 367.26 2.73056 366.908C2.42466 366.643 1.98767 366.573 1.61186 366.74C1.24478 366.916 1.00007 367.286 1.00007 367.7C0.982588 374.024 4.39113 376.737 4.5397 376.851ZM14.0311 377.943L12.5541 378.851C13.1921 379.899 14.6429 381.502 16.8715 383.625C12.7463 383.334 10.3953 380.401 10.2817 380.26L8.91829 381.335C9.0581 381.511 12.1346 385.386 17.527 385.386C17.9524 385.386 18.3923 385.363 18.8467 385.315C19.2313 385.272 19.5547 384.999 19.6683 384.628C19.7906 384.259 19.6858 383.854 19.3974 383.589C15.613 380.128 14.4156 378.56 14.0311 377.943ZM6.94444 386.804C6.36613 393.859 14.9675 398.851 20.4688 401.313C10.6442 400.746 2.60967 394.523 2.5179 394.455L2.46848 394.521C2.12848 394.295 1.66996 394.37 1.41158 394.697C1.16135 395.022 1.20824 395.485 1.50382 395.766L1.45125 395.825C1.88251 396.166 12.0462 404.053 24.0601 403C24.5425 402.963 24.9232 402.587 24.9885 402.099C25.0132 401.92 24.994 401.747 24.934 401.592C24.8299 401.32 24.6148 401.102 24.3221 400.999C21.8439 400.087 10.3904 395.575 8.8263 388.969C10.1922 390.231 11.988 391.806 12.9498 392.309L13.7393 390.754C12.6952 390.208 9.92321 387.653 8.45848 386.232C8.20626 385.991 7.84026 385.916 7.52242 386.041C7.20143 386.156 6.97247 386.463 6.94444 386.804ZM14.2646 394.828L12.8917 393.768C13.3233 393.184 14.3414 391.492 16.1775 386.685C16.3178 386.319 16.6549 386.074 17.0413 386.056C17.4246 386.029 17.7941 386.234 17.9737 386.579C18.1814 386.99 18.362 387.394 18.5156 387.794C20.4633 392.862 17.9885 397.152 17.876 397.347L16.3893 396.454L16.3903 396.452C16.4921 396.273 18.339 393.014 17.1224 389.047C15.9632 391.907 15.004 393.85 14.2646 394.828ZM13.6478 402.587L15.3093 403.082C15.257 403.262 13.978 407.445 8.12007 409.713C7.73705 409.862 7.30637 409.766 7.01077 409.485C6.72021 409.192 6.62755 408.756 6.76155 408.373C6.94234 407.868 7.28264 406.876 7.63657 405.821C8.23355 404.058 8.91596 402.054 9.26333 401.153L10.8762 401.79C10.5406 402.647 9.86825 404.629 9.27624 406.381C9.15037 406.761 9.02636 407.121 8.90917 407.45C12.7285 405.487 13.6124 402.714 13.6478 402.587ZM4.31272 425.638C8.57776 421.357 16.3038 415.077 22.6227 418.169C22.9286 418.319 23.1296 418.644 23.1209 418.988C23.1209 419.331 22.9198 419.648 22.6052 419.798C20.7611 420.661 17.3963 422.343 16.5135 423.127L15.3599 421.824C16.1727 421.101 18.279 419.983 19.9396 419.155C13.2623 418.239 4.95072 427.373 3.2115 429.372C3.0105 429.61 2.73081 429.733 2.4424 429.733C2.27634 429.733 2.11029 429.689 1.95297 429.601C1.52471 429.363 1.31496 428.87 1.45479 428.403C4.81963 416.733 15.7881 410.03 16.2601 409.749L16.295 409.819C16.6621 409.643 17.1079 409.766 17.3176 410.118C17.5274 410.479 17.4312 410.937 17.0991 411.176L17.1428 411.246C17.0467 411.308 8.38551 416.61 4.31272 425.638ZM4.5397 420.15L5.59721 418.767C5.49234 418.688 3.24621 416.856 2.80922 412.558C3.07142 412.787 3.35984 413.034 3.66571 413.289C5.07284 414.478 6.66348 415.826 7.33646 416.451L8.5076 415.165C7.79967 414.513 6.19154 413.148 4.77569 411.95C3.92792 411.237 3.13258 410.559 2.73056 410.207C2.42466 409.942 1.98767 409.872 1.61186 410.039C1.24478 410.215 1.00007 410.585 1.00007 410.999C0.982588 417.323 4.39113 420.036 4.5397 420.15ZM14.0311 421.243L12.5541 422.15C13.1921 423.198 14.6429 424.801 16.8715 426.923C12.7463 426.633 10.3953 423.7 10.2817 423.559L8.91829 424.633C9.0581 424.809 12.1346 428.685 17.527 428.685C17.9524 428.685 18.3923 428.661 18.8467 428.615C19.2313 428.57 19.5547 428.297 19.6683 427.928C19.7906 427.557 19.6858 427.152 19.3974 426.888C15.613 423.427 14.4156 421.859 14.0311 421.243ZM20.4688 444.612C14.9675 442.15 6.36613 437.158 6.94444 430.103C6.97251 429.762 7.20147 429.455 7.52246 429.339C7.8403 429.215 8.2063 429.29 8.45848 429.531C9.92325 430.952 12.6952 433.507 13.7394 434.053L12.9499 435.608C11.988 435.105 10.1922 433.53 8.82634 432.268C10.3905 438.874 21.8439 443.386 24.3221 444.298C24.6148 444.401 24.8299 444.619 24.9341 444.89C24.994 445.046 25.0133 445.218 24.9886 445.398C24.9232 445.886 24.5426 446.261 24.0601 446.298C12.0462 447.352 1.88253 439.465 1.45127 439.123L1.50384 439.065C1.20826 438.784 1.16137 438.321 1.4116 437.996C1.66999 437.669 2.1285 437.593 2.4685 437.82L2.51792 437.753C2.60969 437.821 10.6442 444.045 20.4688 444.612ZM14.2646 438.127L12.8917 437.066C13.3233 436.482 14.3415 434.791 16.1775 429.984C16.3179 429.618 16.6549 429.373 17.0413 429.354C17.4247 429.327 17.7941 429.533 17.9738 429.878C18.1814 430.288 18.362 430.693 18.5156 431.093C20.4617 436.156 17.9926 440.444 17.8761 440.646L16.3893 439.753L16.3904 439.751C16.4936 439.569 18.3385 436.311 17.1224 432.345C15.9633 435.206 15.004 437.149 14.2646 438.127ZM15.3094 446.38L13.6478 445.886C13.6124 446.013 12.7285 448.786 8.90921 450.749C9.0264 450.42 9.15041 450.059 9.27628 449.68C9.86829 447.928 10.5407 445.946 10.8763 445.088L9.26337 444.452C8.916 445.353 8.23359 447.357 7.63661 449.12C7.28268 450.175 6.94238 451.167 6.76159 451.672C6.62759 452.055 6.72021 452.491 7.01081 452.783C7.30641 453.065 7.73709 453.161 8.12011 453.012C13.978 450.744 15.2571 446.561 15.3094 446.38ZM4.31272 465.078C8.57776 460.797 16.3038 454.518 22.6227 457.609C22.9286 457.759 23.1296 458.085 23.1209 458.428C23.1209 458.772 22.9198 459.089 22.6052 459.239C20.7611 460.102 17.3963 461.784 16.5135 462.568L15.3599 461.264C16.1727 460.542 18.279 459.424 19.9396 458.596C13.2623 457.679 4.95072 466.813 3.2115 468.812C3.0105 469.05 2.73081 469.174 2.4424 469.174C2.27634 469.174 2.11029 469.13 1.95297 469.041C1.52471 468.804 1.31496 468.311 1.45479 467.843C4.81963 456.173 15.7881 449.471 16.2601 449.189L16.295 449.259C16.6621 449.083 17.1079 449.207 17.3176 449.559C17.5274 449.92 17.4312 450.378 17.0991 450.616L17.1428 450.686C17.0467 450.748 8.38551 456.05 4.31272 465.078ZM4.5397 459.591L5.59721 458.208C5.49234 458.129 3.24621 456.297 2.80922 451.999C3.07142 452.228 3.35984 452.474 3.66571 452.73C5.07284 453.919 6.66348 455.266 7.33646 455.892L8.5076 454.606C7.79967 453.954 6.19154 452.589 4.77569 451.391C3.92792 450.678 3.13258 449.999 2.73056 449.647C2.42466 449.383 1.98767 449.312 1.61186 449.48C1.24478 449.656 1.00007 450.026 1.00007 450.44C0.982588 456.764 4.39113 459.476 4.5397 459.591ZM14.0311 460.683L12.5541 461.59C13.1921 462.638 14.6429 464.241 16.8715 466.364C12.7463 466.073 10.3953 463.14 10.2817 463L8.91829 464.074C9.0581 464.25 12.1346 468.125 17.527 468.125C17.9524 468.125 18.3923 468.102 18.8467 468.055C19.2313 468.011 19.5547 467.738 19.6683 467.368C19.7906 466.998 19.6858 466.593 19.3974 466.329C15.613 462.867 14.4156 461.3 14.0311 460.683ZM6.94538 469.544C6.36712 476.599 14.9685 481.591 20.4698 484.052C10.6452 483.486 2.61065 477.262 2.51887 477.194L2.46946 477.26C2.12945 477.034 1.67094 477.109 1.41255 477.437C1.16233 477.761 1.20921 478.225 1.50479 478.506L1.45222 478.564C1.88348 478.906 12.0472 486.792 24.0611 485.739C24.5435 485.702 24.9241 485.327 24.9895 484.838C25.0142 484.659 24.995 484.487 24.935 484.331C24.8308 484.06 24.6157 483.841 24.3231 483.738C21.8449 482.826 10.3914 478.314 8.82729 471.709C10.1932 472.97 11.9889 474.546 12.9508 475.048L13.7403 473.494C12.6962 472.947 9.92419 470.393 8.45943 468.972C8.20725 468.73 7.84125 468.656 7.52341 468.78C7.20242 468.895 6.97346 469.202 6.94538 469.544ZM14.2655 477.567L12.8926 476.507C13.3242 475.923 14.3424 474.231 16.1785 469.425C16.3188 469.058 16.6558 468.814 17.0423 468.795C17.4256 468.768 17.795 468.973 17.9747 469.319C18.1823 469.729 18.3629 470.134 18.5165 470.533C20.463 475.598 17.9928 479.886 17.8772 480.086L17.877 480.087L16.3902 479.194L16.3913 479.192C16.4929 479.013 18.34 475.753 17.1234 471.786C15.9642 474.647 15.0049 476.589 14.2655 477.567ZM13.6488 485.327L15.3103 485.821C15.258 486.002 13.979 490.185 8.12106 492.452C7.738 492.602 7.30732 492.505 7.01175 492.224C6.72116 491.932 6.62853 491.496 6.76254 491.112C6.94333 490.607 7.28359 489.615 7.63751 488.561C8.23453 486.798 8.91691 484.793 9.26432 483.893L10.8772 484.529C10.5416 485.387 9.8692 487.368 9.27723 489.12C9.15136 489.5 9.02735 489.86 8.91012 490.189C12.7294 488.226 13.6133 485.454 13.6488 485.327ZM4.31272 508.377C8.57776 504.096 16.3038 497.816 22.6227 500.908C22.9286 501.058 23.1296 501.384 23.1209 501.727C23.1209 502.071 22.9198 502.388 22.6052 502.537C20.7611 503.401 17.3963 505.083 16.5135 505.867L15.3599 504.563C16.1727 503.841 18.279 502.722 19.9396 501.895C13.2623 500.978 4.95072 510.112 3.2115 512.111C3.0105 512.349 2.73081 512.472 2.4424 512.472C2.27634 512.472 2.11029 512.428 1.95297 512.34C1.52471 512.102 1.31496 511.609 1.45479 511.142C4.81963 499.472 15.7881 492.77 16.2601 492.488L16.295 492.558C16.6621 492.382 17.1079 492.505 17.3176 492.858C17.5274 493.219 17.4312 493.677 17.0991 493.915L17.1428 493.985C17.0467 494.047 8.38551 499.349 4.31272 508.377ZM4.5397 502.89L5.59721 501.507C5.49234 501.427 3.24621 499.595 2.80922 495.297C3.07142 495.526 3.35984 495.773 3.66571 496.029C5.07284 497.218 6.66348 498.565 7.33646 499.19L8.5076 497.905C7.79967 497.253 6.19154 495.888 4.77569 494.69C3.92792 493.976 3.13258 493.298 2.73056 492.946C2.42466 492.681 1.98767 492.611 1.61186 492.778C1.24478 492.955 1.00007 493.325 1.00007 493.739C0.982588 500.063 4.39113 502.775 4.5397 502.89ZM12.5541 504.889L14.0311 503.982C14.4156 504.598 15.613 506.166 19.3974 509.627C19.6858 509.891 19.7906 510.297 19.6683 510.667C19.5547 511.037 19.2313 511.31 18.8467 511.354C18.3923 511.401 17.9524 511.424 17.527 511.424C12.1346 511.424 9.0581 507.549 8.91829 507.373L10.2817 506.298C10.3953 506.439 12.7463 509.372 16.8715 509.662C14.6429 507.54 13.1921 505.937 12.5541 504.889ZM20.4698 527.351C14.9685 524.889 6.36708 519.897 6.94538 512.843C6.97346 512.501 7.20238 512.194 7.52341 512.078C7.84125 511.954 8.20725 512.029 8.45943 512.27C9.92416 513.692 12.6961 516.246 13.7403 516.792L12.9508 518.347C11.9889 517.844 10.1932 516.269 8.82729 515.008C10.3914 521.613 21.8449 526.125 24.3231 527.037C24.6157 527.14 24.8308 527.358 24.935 527.629C24.995 527.786 25.0142 527.957 24.9895 528.137C24.9241 528.625 24.5435 529.001 24.0611 529.038C12.0472 530.091 1.88347 522.204 1.45221 521.863L1.50478 521.804C1.2092 521.523 1.16231 521.06 1.41254 520.735C1.67093 520.408 2.12944 520.333 2.46944 520.559L2.51886 520.492C2.61063 520.56 10.6452 526.785 20.4698 527.351ZM12.8926 519.805L14.2655 520.866C15.0049 519.888 15.9642 517.945 17.1233 515.084C18.3392 519.05 16.4953 522.307 16.391 522.491L16.3902 522.492L17.877 523.385C17.9921 523.186 20.4632 518.897 18.5165 513.832C18.3629 513.433 18.1823 513.027 17.9747 512.618C17.795 512.272 17.4256 512.067 17.0423 512.094C16.6558 512.112 16.3188 512.357 16.1785 512.724C14.3424 517.53 13.3242 519.221 12.8926 519.805ZM15.3103 529.119L13.6488 528.625C13.6133 528.752 12.7294 531.525 8.91012 533.488C9.02735 533.159 9.15136 532.799 9.27723 532.419C9.8692 530.667 10.5416 528.686 10.8772 527.827L9.26432 527.191C8.91691 528.092 8.23453 530.096 7.63751 531.859C7.28359 532.914 6.94333 533.906 6.76254 534.411C6.62853 534.794 6.72116 535.23 7.01175 535.523C7.30732 535.804 7.738 535.901 8.12106 535.751C13.979 533.484 15.258 529.3 15.3103 529.119ZM4.31272 547.817C8.57776 543.537 16.3038 537.257 22.6227 540.349C22.9286 540.498 23.1296 540.824 23.1209 541.168C23.1209 541.511 22.9198 541.828 22.6052 541.978C20.7611 542.841 17.3963 544.523 16.5135 545.307L15.3599 544.004C16.1727 543.281 18.279 542.163 19.9396 541.335C13.2623 540.419 4.95072 549.553 3.2115 551.552C3.0105 551.79 2.73081 551.913 2.4424 551.913C2.27634 551.913 2.11029 551.869 1.95297 551.781C1.52471 551.543 1.31496 551.05 1.45479 550.583C4.81963 538.913 15.7881 532.21 16.2601 531.928L16.295 531.999C16.6621 531.823 17.1079 531.946 17.3176 532.298C17.5274 532.659 17.4312 533.117 17.0991 533.355L17.1428 533.425C17.0467 533.487 8.38551 538.789 4.31272 547.817ZM4.5397 542.33L5.59721 540.947C5.49234 540.868 3.24621 539.036 2.80922 534.738C3.07142 534.967 3.35984 535.214 3.66571 535.469C5.07284 536.658 6.66348 538.006 7.33646 538.631L8.5076 537.345C7.79967 536.693 6.19154 535.328 4.77569 534.13C3.92792 533.417 3.13258 532.739 2.73056 532.386C2.42466 532.122 1.98767 532.052 1.61186 532.219C1.24478 532.395 1.00007 532.765 1.00007 533.179C0.982588 539.503 4.39113 542.216 4.5397 542.33ZM14.0311 543.422L12.5541 544.329C13.1921 545.378 14.6429 546.981 16.8715 549.103C12.7463 548.813 10.3953 545.879 10.2817 545.739L8.91829 546.813C9.0581 546.989 12.1346 550.865 17.527 550.865C17.9524 550.865 18.3923 550.841 18.8467 550.794C19.2313 550.75 19.5547 550.477 19.6683 550.107C19.7906 549.737 19.6858 549.332 19.3974 549.068C15.613 545.607 14.4156 544.039 14.0311 543.422ZM6.94515 552.283C6.36684 559.338 14.9682 564.33 20.4695 566.792C10.6449 566.225 2.61038 560.001 2.51861 559.933L2.46919 560C2.12919 559.773 1.67067 559.849 1.41229 560.176C1.16206 560.5 1.20895 560.964 1.50453 561.245L1.45196 561.303C1.88322 561.645 12.0469 569.532 24.0608 568.478C24.5433 568.441 24.9239 568.066 24.9893 567.578C25.0139 567.398 24.9947 567.226 24.9347 567.07C24.8306 566.799 24.6155 566.581 24.3228 566.478C21.8446 565.565 10.3912 561.054 8.82701 554.448C10.1929 555.71 11.9887 557.285 12.9505 557.788L13.74 556.233C12.6959 555.686 9.92392 553.132 8.45919 551.711C8.20697 551.469 7.84097 551.395 7.52313 551.519C7.20214 551.635 6.97318 551.941 6.94515 552.283ZM14.2652 560.307L12.8923 559.246C13.3239 558.662 14.3422 556.971 16.1782 552.164C16.3185 551.798 16.6555 551.553 17.042 551.534C17.4253 551.507 17.7948 551.712 17.9744 552.058C18.182 552.468 18.3626 552.873 18.5163 553.273C20.464 558.34 17.9892 562.631 17.8767 562.826L16.39 561.933L16.391 561.931C16.4936 561.75 18.3394 558.491 17.1231 554.525C15.9639 557.386 15.0046 559.329 14.2652 560.307ZM13.6485 568.066L15.31 568.56C15.2578 568.741 13.9787 572.924 8.12078 575.192C7.73776 575.341 7.30708 575.245 7.01148 574.963C6.72092 574.671 6.62826 574.235 6.76226 573.852C6.94305 573.347 7.28335 572.354 7.63728 571.3C8.23426 569.537 8.91668 567.533 9.26404 566.632L10.877 567.268C10.5413 568.126 9.86896 570.108 9.27695 571.86C9.15108 572.239 9.02707 572.6 8.90988 572.928C12.7292 570.966 13.6131 568.193 13.6485 568.066ZM4.31272 588.115C8.57776 583.835 16.3038 577.555 22.6227 580.647C22.9286 580.796 23.1296 581.122 23.1209 581.466C23.1209 581.809 22.9198 582.126 22.6052 582.276C20.7611 583.139 17.3963 584.821 16.5135 585.605L15.3599 584.302C16.1727 583.579 18.279 582.461 19.9396 581.633C13.2623 580.717 4.95072 589.85 3.2115 591.85C3.0105 592.088 2.73081 592.211 2.4424 592.211C2.27634 592.211 2.11029 592.167 1.95297 592.079C1.52471 591.841 1.31496 591.348 1.45479 590.881C4.81963 579.211 15.7881 572.508 16.2601 572.226L16.295 572.297C16.6621 572.12 17.1079 572.244 17.3176 572.596C17.5274 572.957 17.4312 573.415 17.0991 573.653L17.1428 573.723C17.0467 573.785 8.38551 579.087 4.31272 588.115ZM4.5397 582.628L5.59721 581.245C5.49234 581.166 3.24621 579.334 2.80922 575.036C3.07142 575.265 3.35984 575.512 3.66571 575.767C5.07284 576.956 6.66348 578.304 7.33646 578.929L8.5076 577.643C7.79967 576.991 6.19154 575.626 4.77569 574.428C3.92792 573.715 3.13258 573.037 2.73056 572.684C2.42466 572.42 1.98767 572.35 1.61186 572.517C1.24478 572.693 1.00007 573.063 1.00007 573.477C0.982588 579.801 4.39113 582.514 4.5397 582.628ZM14.0311 583.72L12.5541 584.627C13.1921 585.676 14.6429 587.279 16.8715 589.401C12.7463 589.111 10.3953 586.177 10.2817 586.037L8.91829 587.111C9.0581 587.287 12.1346 591.163 17.527 591.163C17.9524 591.163 18.3923 591.139 18.8467 591.092C19.2313 591.048 19.5547 590.775 19.6683 590.405C19.7906 590.035 19.6858 589.63 19.3974 589.366C15.613 585.905 14.4156 584.337 14.0311 583.72Z" fill="#CF9B47"/>
</svg>
