<?xml version="1.0" encoding="UTF-8" standalone="no"?>
<!-- Uploaded to: SVG Repo, www.svgrepo.com, Generator: SVG Repo Mixer Tools -->

<svg
   fill="#000000"
   version="1.1"
   id="Layer_1"
   viewBox="0 0 527 527"
   xml:space="preserve"
   width="800px"
   height="800px"
   sodipodi:docname="volkswagen.svg"
   inkscape:version="1.4 (e7c3feb1, 2024-10-09)"
   xmlns:inkscape="http://www.inkscape.org/namespaces/inkscape"
   xmlns:sodipodi="http://sodipodi.sourceforge.net/DTD/sodipodi-0.dtd"
   xmlns="http://www.w3.org/2000/svg"
   xmlns:svg="http://www.w3.org/2000/svg"><defs
   id="defs6" /><sodipodi:namedview
   id="namedview6"
   pagecolor="#ffffff"
   bordercolor="#cccccc"
   borderopacity="1"
   inkscape:showpageshadow="0"
   inkscape:pageopacity="1"
   inkscape:pagecheckerboard="0"
   inkscape:deskcolor="#d1d1d1"
   inkscape:zoom="1.23125"
   inkscape:cx="400.40609"
   inkscape:cy="400"
   inkscape:window-width="1200"
   inkscape:window-height="1134"
   inkscape:window-x="0"
   inkscape:window-y="25"
   inkscape:window-maximized="0"
   inkscape:current-layer="Layer_1" />
<g
   id="g6"
   style="fill:#c49632;fill-opacity:1">
	<path
   d="M263.3,3.7C120.2,3.7,3.5,120.4,3.5,263.5c0,143.1,116.7,259.8,259.8,259.8c143.1,0,259.8-116.7,259.8-259.8   C523,120.4,406.3,3.7,263.3,3.7L263.3,3.7z M263.3,493.3c-126.6,0-229.8-103.2-229.8-229.8c0-126.6,103.2-229.8,229.8-229.8   s229.8,103.2,229.8,229.8C493.1,390.1,389.8,493.3,263.3,493.3L263.3,493.3z"
   id="path1"
   style="fill:#c49632;fill-opacity:1" />
	<path
   d="M188.9,439.1C120.6,410,72.6,342.2,72.6,263.5c0-20,3.1-39.3,8.9-57.5L188.9,439.1L188.9,439.1z"
   id="path2"
   style="fill:#c49632;fill-opacity:1" />
	<path
   d="M316.2,446.7c-16.8,4.9-34.6,7.5-53,7.5c-18.4,0-36.1-2.6-52.9-7.5l52.9-123.5L316.2,446.7L316.2,446.7z"
   id="path3"
   style="fill:#c49632;fill-opacity:1" />
	<path
   d="M445.1,206.1c5.8,18.1,8.9,37.4,8.9,57.4c0,78.7-48.1,146.5-116.3,175.5L445.1,206.1L445.1,206.1z"
   id="path4"
   style="fill:#c49632;fill-opacity:1" />
	<path
   d="M359.4,98.9c23.3,13.7,43.4,32.1,59.1,54l-95,201.9l-32-77.1h-56.4l-32,77.1l-95-201.9c15.7-21.9,35.8-40.4,59.1-54   l66.6,155.5h59L359.4,98.9L359.4,98.9z"
   id="path5"
   style="fill:#c49632;fill-opacity:1" />
	<path
   d="M263.3,72.8c18.6,0,36.7,2.7,53.7,7.7l-53.7,129.3L209.6,80.5C226.6,75.5,244.6,72.8,263.3,72.8L263.3,72.8z"
   id="path6"
   style="fill:#c49632;fill-opacity:1" />
</g>
</svg>
