<?xml version="1.0" encoding="UTF-8" standalone="no"?>
<!-- Creator: CorelDRAW -->

<svg
   xml:space="preserve"
   width="2049px"
   height="1984px"
   shape-rendering="geometricPrecision"
   text-rendering="geometricPrecision"
   image-rendering="optimizeQuality"
   fill-rule="evenodd"
   clip-rule="evenodd"
   viewBox="0 0 2200.59 2130.34"
   version="1.1"
   id="svg5"
   sodipodi:docname="Honda.svg"
   inkscape:version="1.4 (e7c3feb1, 2024-10-09)"
   xmlns:inkscape="http://www.inkscape.org/namespaces/inkscape"
   xmlns:sodipodi="http://sodipodi.sourceforge.net/DTD/sodipodi-0.dtd"
   xmlns="http://www.w3.org/2000/svg"
   xmlns:svg="http://www.w3.org/2000/svg"><defs
   id="defs5" /><sodipodi:namedview
   id="namedview5"
   pagecolor="#ffffff"
   bordercolor="#cccccc"
   borderopacity="1"
   inkscape:showpageshadow="0"
   inkscape:pageopacity="1"
   inkscape:pagecheckerboard="0"
   inkscape:deskcolor="#d1d1d1"
   inkscape:zoom="0.49243952"
   inkscape:cx="996.06141"
   inkscape:cy="1067.1361"
   inkscape:window-width="2240"
   inkscape:window-height="1260"
   inkscape:window-x="0"
   inkscape:window-y="0"
   inkscape:window-maximized="0"
   inkscape:current-layer="Ebene_x0020_1" />
 <g
   id="Ebene_x0020_1"
   inkscape:label="Ebene 1">
  <metadata
   id="CorelCorpID_0Corel-Layer" />
  <g
   id="g1963"
   style="fill:#bf9231;fill-opacity:1"
   transform="translate(2.016053,141.76128)">
   <path
   id="path1965"
   fill="#DA251D"
   d="m 1606.73,151.243 c -50.6032,225.554 -70.5426,329.159 -111.632,492.465 -39.4247,156.732 -69.9604,302.135 -122.776,372.644 -53.617,71.532 -125.113,87.1081 -173.81,92.5876 -25.2084,2.8273 -43.5889,4.0944 -98.1838,4.3037 -54.6051,-0.2207 -72.9742,-1.4764 -98.1838,-4.3037 -48.6955,-5.4795 -120.228,-21.0556 -173.81,-92.5876 C 775.5432,945.8322 744.9834,800.406 705.5234,643.708 664.4586,480.39 644.485,376.785 593.9164,151.243 c 0,0 -50.4536,1.96604 -72.789,3.53633 -30.1996,2.15122 -53.8377,4.73498 -79.594,8.15461 0,0 29.025,463.847 42.1708,660.366 13.8193,206.70896 38.0751,555.01696 60.8761,818.01796 0,0 42.356,6.7353 112.713,10.7726 73.9978,4.2454 106.897,4.7109 106.897,4.7109 30.4444,-115.854 68.0883,-276.647 110.84,-345.224 34.7481,-55.7695 88.2725,-61.679 118.623,-65.8318 47.6732,-6.4917 87.8767,-7.4798 106.502,-6.8989 v 0 c 0.057,0 0.1281,0 0.1852,0 0.058,0 0.1522,0 0.1864,0 v 0 c 18.6253,-0.6164 58.8517,0.3958 106.525,6.8989 30.3163,4.1528 83.8749,10.0623 118.623,65.8318 42.7518,68.5779 80.3969,229.37 110.864,345.224 0,0 32.8975,-0.4883 106.897,-4.7109 70.3333,-4.0373 112.713,-10.7726 112.713,-10.7726 22.7768,-263.014 47.0555,-611.275 60.9103,-818.01796 13.1458,-196.53 42.1353,-660.366 42.1353,-660.366 -25.7322,-3.41963 -49.3703,-5.96787 -79.594,-8.15461 -22.428,-1.55888 -72.8702,-3.53633 -72.8702,-3.53633 z"
   style="fill:#bf9231;fill-opacity:1" />
   <path
   id="path1967"
   fill="#DA251D"
   d="M 2191.13,425.086 C 2161.2095,130.477 1964.657,68.263 1792.102,39.332 1705.1208,24.744 1550.633,12.4011 1451.588,8.3409 1365.038,2.80302 1160.889,0.02267 1100.28,-1.7e-4 1039.7058,0.0353455 835.544,2.80302 748.994,8.3409 649.9502,12.40108 495.462,24.744 408.516,39.332 235.939,68.2632 39.373,130.4774 9.43,425.086 1.27539,505.3307 -1.0636,610.041 0.41414,722.789 c 2.46706,186.677 18.4972,312.744 27.6754,400.005 6.30527,59.8994 31.3285,239.957 63.47,333.092 44.1369,127.975 83.8165,165.248 130.536,203.324 85.4097,69.6586 226.078,91.0757 256.057,96.4613 158.827,28.5595 480.251,33.7017 622.13996,33.5152 141.924,0.1865 463.382,-4.9557 622.139,-33.5152 30.0144,-5.3857 170.67,-26.8142 256.081,-96.4613 46.7181,-38.0751 86.399,-75.3486 130.535,-203.324 32.1314,-93.1356 57.1305,-273.193 63.4712,-333.092 9.1668,-87.2603 25.2084,-213.328 27.6399,-400.005 1.5006,-112.749 -0.8371,-217.493 -9.0272,-297.703 z m -107.944,494.873 c -17.4495,235.338 -38.377,376.46 -68.2975,478.192 -26.2903,89.1096 -58.8517,148.974 -106.408,192.004 -79.3847,71.811 -188.713,87.2248 -252.858,96.7759 -138.574,20.5559 -371.935,27.6983 -555.354,27.768 -183.418,-0.057 -416.756,-7.2008 -555.353,-27.768 -64.1105,-9.5384 -173.416,-24.9648 -252.788,-96.7759 -47.5793,-43.0308 -80.1521,-102.93 -106.408,-192.004 -29.9434,-101.72 -50.8835,-242.854 -68.2988,-478.192 -10.5164,-141.854 -8.29413,-371.69 7.4925,-495.21 23.4872,-184.176 114.934,-276.95 310.906,-311.884 91.4486,-16.2864 214.375,-27.8492 331.032,-33.6078 93.5427,-6.30527 247.495,-9.48137 333.43,-8.67846 85.9678,-0.802904 239.921,2.3732 333.428,8.67846 116.657,5.78141 239.584,17.3328 331.032,33.6078 195.972,34.9346 287.419,127.674 310.965,311.861 15.7625,123.543 17.9505,353.379 7.4798,495.233 z"
   style="fill:#bf9231;fill-opacity:1" />
  </g>
  
  
  
  
  
 </g>
</svg>
