<?xml version="1.0" encoding="UTF-8" standalone="no"?>
<!-- Uploaded to: SVG Repo, www.svgrepo.com, Generator: SVG Repo Mixer Tools -->

<svg
   fill="#000000"
   version="1.1"
   id="svg3544"
   viewBox="0 0 80 80"
   xml:space="preserve"
   width="800px"
   height="800px"
   sodipodi:docname="mercedes.svg"
   inkscape:version="1.4 (e7c3feb1, 2024-10-09)"
   xmlns:inkscape="http://www.inkscape.org/namespaces/inkscape"
   xmlns:sodipodi="http://sodipodi.sourceforge.net/DTD/sodipodi-0.dtd"
   xmlns="http://www.w3.org/2000/svg"
   xmlns:svg="http://www.w3.org/2000/svg"><defs
   id="defs1" /><sodipodi:namedview
   id="namedview1"
   pagecolor="#ffffff"
   bordercolor="#cccccc"
   borderopacity="1"
   inkscape:showpageshadow="0"
   inkscape:pageopacity="1"
   inkscape:pagecheckerboard="0"
   inkscape:deskcolor="#d1d1d1"
   inkscape:zoom="1.23375"
   inkscape:cx="400"
   inkscape:cy="400"
   inkscape:window-width="1200"
   inkscape:window-height="1136"
   inkscape:window-x="0"
   inkscape:window-y="25"
   inkscape:window-maximized="0"
   inkscape:current-layer="svg3544" />
<path
   d="M58.6,4.5C53,1.6,46.7,0,40,0c-6.7,0-13,1.6-18.6,4.5v0C8.7,11.2,0,24.6,0,40c0,15.4,8.7,28.8,21.5,35.5  C27,78.3,33.3,80,40,80c6.7,0,12.9-1.7,18.5-4.6C71.3,68.8,80,55.4,80,40C80,24.6,71.3,11.2,58.6,4.5z M4,40  c0-13.1,7-24.5,17.5-30.9v0C26.6,6,32.5,4.2,39,4l-4.5,32.7L21.5,46.8v0L8.3,57.1C5.6,52,4,46.2,4,40z M58.6,70.8  C53.1,74.1,46.8,76,40,76c-6.8,0-13.2-1.9-18.6-5.2c-4.9-2.9-8.9-6.9-11.9-11.7l11.9-4.9v0L40,46.6l18.6,7.5v0l12,4.9  C67.6,63.9,63.4,67.9,58.6,70.8z M58.6,46.8L58.6,46.8l-12.9-10L41.1,4c6.3,0.2,12.3,2,17.4,5.1v0C69,15.4,76,26.9,76,40  c0,6.2-1.5,12-4.3,17.1L58.6,46.8z"
   id="path1"
   style="fill:#c49632;fill-opacity:1" />
</svg>
