<?xml version="1.0" encoding="UTF-8" standalone="no"?>
<svg
   version="1.0"
   width="512.000000pt"
   height="512.000000pt"
   viewBox="0 0 512.000000 512.000000"
   preserveAspectRatio="xMidYMid meet"
   id="svg4"
   sodipodi:docname="key.svg"
   inkscape:version="1.4 (e7c3feb1, 2024-10-09)"
   xmlns:inkscape="http://www.inkscape.org/namespaces/inkscape"
   xmlns:sodipodi="http://sodipodi.sourceforge.net/DTD/sodipodi-0.dtd"
   xmlns="http://www.w3.org/2000/svg"
   xmlns:svg="http://www.w3.org/2000/svg">
  <defs
     id="defs4" />
  <sodipodi:namedview
     id="namedview4"
     pagecolor="#ffffff"
     bordercolor="#cccccc"
     borderopacity="1"
     inkscape:showpageshadow="0"
     inkscape:pageopacity="1"
     inkscape:pagecheckerboard="0"
     inkscape:deskcolor="#d1d1d1"
     inkscape:document-units="pt"
     inkscape:zoom="1.4414063"
     inkscape:cx="341.33333"
     inkscape:cy="341.33333"
     inkscape:window-width="1200"
     inkscape:window-height="1133"
     inkscape:window-x="0"
     inkscape:window-y="25"
     inkscape:window-maximized="0"
     inkscape:current-layer="svg4" />
  <g
     transform="translate(0.000000,512.000000) scale(0.100000,-0.100000)"
     fill="#000000"
     stroke="none"
     id="g4"
     style="fill:#00627f;fill-opacity:1">
    <path
       d="M1605 4949 c-325 -47 -625 -266 -774 -565 -332 -668 125 -1458 869 -1501 225 -13 463 53 650 180 100 68 241 221 304 330 l28 47 315 0 316 0 103 102 104 102 104 -102 c138 -136 134 -136 272 0 l104 102 104 -102 c90 -89 108 -102 137 -102 30 0 54 21 256 223 205 204 223 225 223 257 0 32 -18 53 -223 257 l-222 223 -797 0 -796 0 -28 48 c-63 108 -204 261 -304 329 -213 145 -491 209 -745 172z m-1 -667 c91 -42 149 -100 194 -190 35 -72 37 -81 37 -172 0 -91 -2 -100 -37 -172 -45 -91 -103 -147 -196 -191 -61 -29 -76 -32 -162 -32 -86 0 -101 3 -162 32 -93 44 -151 100 -196 191 -35 72 -37 81 -37 171 0 87 3 102 32 163 40 85 97 147 172 186 78 42 122 52 213 48 61 -3 92 -11 142 -34z"
       id="path1"
       style="fill:#00627f;fill-opacity:1" />
    <path
       d="M1360 4147 c-19 -6 -58 -34 -85 -62 -71 -70 -91 -145 -63 -239 16 -55 99 -138 154 -154 94 -28 169 -8 239 63 102 101 102 229 0 330 -70 71 -152 91 -245 62z"
       id="path2"
       style="fill:#00627f;fill-opacity:1" />
    <path
       d="M4487 2949 c-84 -20 -139 -61 -424 -325 -158 -147 -296 -274 -306 -284 -18 -17 -18 -19 11 -71 52 -94 67 -153 67 -269 0 -124 -23 -202 -85 -299 -71 -110 -165 -184 -297 -233 -56 -22 -73 -22 -530 -26 l-473 -3 -25 25 c-30 30 -33 74 -6 107 l19 24 469 5 469 5 76 37 c91 45 147 103 191 196 29 61 32 76 32 163 0 90 -2 99 -37 171 -45 91 -103 147 -196 191 l-67 32 -874 3 c-962 3 -974 2 -1129 -58 -121 -47 -222 -119 -364 -258 l-129 -126 538 -538 c532 -532 538 -537 558 -519 11 10 36 27 55 37 33 18 78 19 790 24 746 6 756 6 834 28 163 47 310 134 414 247 79 85 828 1123 858 1190 72 157 19 355 -124 460 -85 63 -211 89 -315 64z"
       id="path3"
       style="fill:#00627f;fill-opacity:1" />
    <path
       d="M529 1886 c-55 -19 -82 -42 -231 -193 -123 -125 -138 -143 -138 -174 0 -32 45 -79 663 -696 618 -618 664 -663 696 -663 31 0 50 15 179 143 161 159 191 201 199 281 12 113 29 92 -586 710 -596 598 -605 606 -701 605 -25 0 -61 -6 -81 -13z"
       id="path4"
       style="fill:#00627f;fill-opacity:1" />
  </g>
</svg>
