<?xml version="1.0" encoding="UTF-8" standalone="no"?>
<svg
   version="1.0"
   width="512.000000pt"
   height="512.000000pt"
   viewBox="0 0 512.000000 512.000000"
   preserveAspectRatio="xMidYMid meet"
   id="svg26"
   sodipodi:docname="car-engine.svg"
   inkscape:version="1.4 (e7c3feb1, 2024-10-09)"
   xmlns:inkscape="http://www.inkscape.org/namespaces/inkscape"
   xmlns:sodipodi="http://sodipodi.sourceforge.net/DTD/sodipodi-0.dtd"
   xmlns="http://www.w3.org/2000/svg"
   xmlns:svg="http://www.w3.org/2000/svg">
  <defs
     id="defs26" />
  <sodipodi:namedview
     id="namedview26"
     pagecolor="#ffffff"
     bordercolor="#cccccc"
     borderopacity="1"
     inkscape:showpageshadow="0"
     inkscape:pageopacity="1"
     inkscape:pagecheckerboard="0"
     inkscape:deskcolor="#d1d1d1"
     inkscape:document-units="pt"
     inkscape:zoom="1.434082"
     inkscape:cx="341.33333"
     inkscape:cy="341.33333"
     inkscape:window-width="1200"
     inkscape:window-height="1128"
     inkscape:window-x="0"
     inkscape:window-y="25"
     inkscape:window-maximized="0"
     inkscape:current-layer="svg26" />
  <g
     transform="translate(0.000000,512.000000) scale(0.100000,-0.100000)"
     fill="#000000"
     stroke="none"
     id="g26"
     style="fill:#00627f;fill-opacity:1">
    <path
       d="M1050 4779 c-33 -15 -129 -105 -371 -347 -361 -362 -368 -371 -356 -475 6 -49 47 -125 72 -134 6 -2 213 200 460 448 l450 450 -35 30 c-61 52 -144 63 -220 28z"
       id="path1"
       style="fill:#00627f;fill-opacity:1" />
    <path
       d="M3915 4789 c-16 -4 -46 -22 -65 -38 l-35 -30 450 -450 c247 -248 454 -450 460 -448 25 9 66 85 72 134 12 104 5 113 -356 475 -242 242 -338 332 -371 347 -47 22 -104 25 -155 10z"
       id="path2"
       style="fill:#00627f;fill-opacity:1" />
    <path
       d="M1577 4711 c-28 -6 -27 -6 48 -81 85 -84 109 -120 100 -153 -4 -12 -62 -77 -128 -145 l-122 -122 57 -57 58 -57 37 36 c36 35 54 42 97 39 10 0 63 -44 117 -97 l98 -97 30 24 c29 23 30 27 30 108 1 119 15 156 83 223 l57 57 -34 69 c-60 120 -176 212 -312 247 -57 15 -164 18 -216 6z"
       id="path3"
       style="fill:#00627f;fill-opacity:1" />
    <path
       d="M3323 4705 c-132 -36 -249 -129 -308 -247 l-34 -69 57 -57 c68 -67 82 -104 83 -223 0 -81 1 -85 30 -108 l30 -24 98 97 c54 53 107 97 117 97 43 3 61 -4 97 -39 l37 -36 58 57 57 57 -122 122 c-66 68 -124 133 -128 145 -9 32 8 58 97 149 l80 81 -39 6 c-61 11 -154 7 -210 -8z"
       id="path4"
       style="fill:#00627f;fill-opacity:1" />
    <path
       d="M965 4150 l-450 -450 58 -57 57 -58 452 452 453 453 -55 55 c-30 30 -57 55 -60 55 -3 0 -208 -202 -455 -450z"
       id="path5"
       style="fill:#00627f;fill-opacity:1" />
    <path
       d="M3640 4545 l-55 -55 453 -453 452 -452 57 58 58 57 -450 450 c-247 248 -452 450 -455 450 -3 0 -30 -25 -60 -55z"
       id="path6"
       style="fill:#00627f;fill-opacity:1" />
    <path
       d="M2185 4215 c-21 -20 -25 -34 -25 -80 l0 -55 80 0 80 0 0 55 c0 67 -29 105 -80 105 -19 0 -40 -9 -55 -25z"
       id="path7"
       style="fill:#00627f;fill-opacity:1" />
    <path
       d="M2825 4215 c-21 -20 -25 -34 -25 -80 l0 -55 80 0 80 0 0 55 c0 67 -29 105 -80 105 -19 0 -40 -9 -55 -25z"
       id="path8"
       style="fill:#00627f;fill-opacity:1" />
    <path
       d="M1190 3925 l-165 -165 58 -57 57 -58 167 167 168 168 -55 55 c-30 30 -57 55 -60 55 -3 0 -79 -74 -170 -165z"
       id="path9"
       style="fill:#00627f;fill-opacity:1" />
    <path
       d="M3700 4035 l-55 -55 168 -168 167 -167 57 58 58 57 -165 165 c-91 91 -167 165 -170 165 -3 0 -30 -25 -60 -55z"
       id="path10"
       style="fill:#00627f;fill-opacity:1" />
    <path
       d="M1422 3697 l-282 -282 60 -60 60 -60 283 283 282 282 -60 60 -60 60 -283 -283z"
       id="path11"
       style="fill:#00627f;fill-opacity:1" />
    <path
       d="M3355 3920 l-60 -60 283 -283 282 -282 60 60 60 60 -283 283 -282 282 -60 -60z"
       id="path12"
       style="fill:#00627f;fill-opacity:1" />
    <path
       d="M2115 3906 c-16 -8 -220 -205 -453 -438 -361 -362 -425 -430 -432 -462 -7 -33 16 -133 169 -719 l178 -682 45 -7 c66 -9 113 -34 157 -84 35 -40 61 -99 61 -138 0 -13 13 -16 80 -16 67 0 80 3 80 16 0 108 125 224 240 224 115 0 240 -116 240 -224 0 -13 13 -16 80 -16 67 0 80 3 80 16 0 108 125 224 240 224 115 0 240 -116 240 -224 0 -13 13 -16 80 -16 67 0 80 3 80 16 0 39 26 98 61 138 44 50 91 75 157 84 l45 7 173 662 c95 365 173 673 174 685 7 79 22 61 -427 511 -242 243 -442 435 -460 443 -47 20 -843 20 -888 0z m680 -33 c172 -43 318 -161 400 -323 47 -94 65 -178 65 -303 0 -98 9 -146 126 -684 110 -504 125 -586 120 -637 -13 -123 -89 -232 -205 -289 -59 -29 -74 -32 -156 -32 -79 0 -97 3 -150 29 -100 50 -133 94 -364 484 -118 200 -217 364 -220 366 -3 2 -125 -60 -271 -138 -261 -139 -266 -141 -337 -144 -60 -4 -80 0 -126 21 -110 50 -171 144 -170 262 0 91 -1 89 278 525 171 266 231 369 242 410 29 112 80 200 167 285 169 169 372 225 601 168z"
       id="path13"
       style="fill:#00627f;fill-opacity:1" />
    <path
       d="M2573 3730 c-169 -25 -314 -140 -373 -297 -27 -71 -36 -190 -21 -262 26 -124 121 -251 229 -309 188 -100 390 -76 543 65 102 95 149 203 149 344 0 207 -137 390 -330 442 -76 21 -136 26 -197 17z"
       id="path14"
       style="fill:#00627f;fill-opacity:1" />
    <path
       d="M1907 2904 c-65 -102 -120 -191 -123 -198 -3 -9 10 -17 38 -24 82 -21 167 -119 168 -194 0 -16 5 -28 12 -28 18 0 318 163 318 173 0 23 -78 138 -136 200 -59 64 -144 207 -144 243 0 8 -3 14 -7 14 -5 0 -61 -84 -126 -186z"
       id="path15"
       style="fill:#00627f;fill-opacity:1" />
    <path
       d="M3074 2824 c-85 -85 -197 -146 -314 -170 -44 -9 -102 -30 -141 -52 l-67 -37 148 -248 c81 -137 152 -253 157 -258 7 -7 19 5 37 35 33 56 101 109 168 132 50 16 159 16 216 -1 16 -6 21 -4 17 6 -2 8 -36 160 -75 338 -39 179 -71 325 -73 325 -1 1 -34 -31 -73 -70z"
       id="path16"
       style="fill:#00627f;fill-opacity:1" />
    <path
       d="M1702 2507 c-47 -50 -15 -131 52 -131 72 0 107 85 54 134 -30 27 -79 26 -106 -3z"
       id="path17"
       style="fill:#00627f;fill-opacity:1" />
    <path
       d="M3084 2061 c-133 -81 -93 -273 61 -296 48 -7 117 24 148 67 31 42 34 118 7 166 -42 75 -147 105 -216 63z"
       id="path18"
       style="fill:#00627f;fill-opacity:1" />
    <path
       d="M1545 1415 l-25 -24 0 -351 0 -351 25 -24 c32 -33 78 -33 110 0 l25 24 0 351 0 351 -25 24 c-15 16 -36 25 -55 25 -19 0 -40 -9 -55 -25z"
       id="path19"
       style="fill:#00627f;fill-opacity:1" />
    <path
       d="M2185 1415 l-25 -24 0 -351 0 -351 25 -24 c32 -33 78 -33 110 0 l25 24 0 351 0 351 -25 24 c-15 16 -36 25 -55 25 -19 0 -40 -9 -55 -25z"
       id="path20"
       style="fill:#00627f;fill-opacity:1" />
    <path
       d="M2825 1415 l-25 -24 0 -351 0 -351 25 -24 c32 -33 78 -33 110 0 l25 24 0 351 0 351 -25 24 c-15 16 -36 25 -55 25 -19 0 -40 -9 -55 -25z"
       id="path21"
       style="fill:#00627f;fill-opacity:1" />
    <path
       d="M3465 1415 l-25 -24 0 -351 0 -351 25 -24 c32 -33 78 -33 110 0 l25 24 0 351 0 351 -25 24 c-15 16 -36 25 -55 25 -19 0 -40 -9 -55 -25z"
       id="path22"
       style="fill:#00627f;fill-opacity:1" />
    <path
       d="M1840 1040 l0 -160 80 0 80 0 0 160 0 160 -80 0 -80 0 0 -160z"
       id="path23"
       style="fill:#00627f;fill-opacity:1" />
    <path
       d="M2480 1040 l0 -160 80 0 80 0 0 160 0 160 -80 0 -80 0 0 -160z"
       id="path24"
       style="fill:#00627f;fill-opacity:1" />
    <path
       d="M3120 1040 l0 -160 80 0 80 0 0 160 0 160 -80 0 -80 0 0 -160z"
       id="path25"
       style="fill:#00627f;fill-opacity:1" />
    <path
       d="M2473 669 c-22 -90 -92 -160 -182 -182 -46 -11 -51 -14 -51 -40 0 -40 26 -85 63 -107 29 -18 51 -20 257 -20 206 0 228 2 257 20 37 22 63 67 63 107 0 26 -5 29 -51 40 -90 22 -160 92 -182 182 l-12 51 -75 0 -75 0 -12 -51z"
       id="path26"
       style="fill:#00627f;fill-opacity:1" />
  </g>
</svg>
