<?xml version="1.0" encoding="UTF-8" standalone="no"?>
<svg
   version="1.0"
   width="512.000000pt"
   height="512.000000pt"
   viewBox="0 0 512.000000 512.000000"
   preserveAspectRatio="xMidYMid meet"
   id="svg24"
   sodipodi:docname="car (1).svg"
   inkscape:version="1.4 (e7c3feb1, 2024-10-09)"
   xmlns:inkscape="http://www.inkscape.org/namespaces/inkscape"
   xmlns:sodipodi="http://sodipodi.sourceforge.net/DTD/sodipodi-0.dtd"
   xmlns="http://www.w3.org/2000/svg"
   xmlns:svg="http://www.w3.org/2000/svg">
  <defs
     id="defs24" />
  <sodipodi:namedview
     id="namedview24"
     pagecolor="#ffffff"
     bordercolor="#cccccc"
     borderopacity="1"
     inkscape:showpageshadow="0"
     inkscape:pageopacity="1"
     inkscape:pagecheckerboard="0"
     inkscape:deskcolor="#d1d1d1"
     inkscape:document-units="pt"
     inkscape:zoom="1.4370117"
     inkscape:cx="341.68128"
     inkscape:cy="341.33333"
     inkscape:window-width="1200"
     inkscape:window-height="1130"
     inkscape:window-x="0"
     inkscape:window-y="25"
     inkscape:window-maximized="0"
     inkscape:current-layer="svg24" />
  <g
     transform="translate(0.000000,512.000000) scale(0.100000,-0.100000)"
     fill="#000000"
     stroke="none"
     id="g24"
     style="fill:#00627f;fill-opacity:1">
    <path
       d="M1435 4866 c-129 -41 -143 -61 -358 -492 -137 -275 -187 -384 -191 -420 -23 -197 -50 -263 -148 -370 -82 -90 -119 -144 -168 -246 -79 -165 -83 -195 -88 -617 -4 -419 0 -467 53 -577 60 -125 164 -219 301 -272 l69 -27 676 -3 677 -3 33 138 c46 188 67 207 177 164 l50 -20 146 220 146 219 -460 0 -461 0 -26 26 c-24 24 -25 30 -20 91 13 139 96 257 225 321 l76 37 416 0 416 0 76 -37 c126 -63 210 -181 224 -315 8 -74 -8 -108 -57 -120 -30 -8 -21 -16 403 -367 l433 -358 80 6 c223 15 404 153 477 363 23 67 23 74 23 478 -1 463 -3 482 -85 653 -49 102 -79 146 -165 242 -102 112 -128 177 -151 374 -4 36 -53 144 -190 417 -200 401 -225 439 -317 480 l-52 24 -1100 2 c-868 1 -1108 -1 -1140 -11z m2213 -163 c33 -28 343 -737 349 -799 9 -83 -18 -157 -81 -219 -91 -91 9 -85 -1356 -85 -1365 0 -1265 -6 -1356 85 -63 62 -90 136 -81 219 6 62 316 771 349 799 19 16 86 17 1088 17 1002 0 1069 -1 1088 -17z m-2356 -1705 c129 -64 212 -182 225 -321 5 -61 4 -67 -20 -91 l-26 -26 -391 0 -391 0 -24 25 c-25 24 -25 26 -25 215 0 191 0 191 25 216 l26 25 262 -3 263 -3 76 -37z m3163 17 c25 -24 25 -26 25 -215 0 -189 0 -191 -25 -215 l-24 -25 -391 0 -391 0 -26 26 c-24 24 -25 30 -20 91 8 81 50 175 106 236 44 48 135 101 197 116 22 5 148 9 282 10 l243 1 24 -25z m-2701 -547 c86 -26 166 -136 166 -228 0 -124 -116 -240 -240 -240 -124 0 -240 116 -240 240 0 63 23 114 75 165 70 71 145 90 239 63z"
       id="path1"
       style="fill:#00627f;fill-opacity:1" />
    <path
       d="M1426 4231 c-80 -181 -146 -341 -146 -356 0 -36 26 -78 60 -99 26 -15 135 -16 1220 -16 1085 0 1194 1 1220 16 34 21 60 63 60 99 0 15 -66 175 -146 356 l-146 329 -988 0 -988 0 -146 -329z"
       id="path2"
       style="fill:#00627f;fill-opacity:1" />
    <path
       d="M800 2800 l0 -80 270 0 c310 0 304 -2 218 83 -71 70 -97 77 -312 77 l-176 0 0 -80z"
       id="path3"
       style="fill:#00627f;fill-opacity:1" />
    <path
       d="M3920 2867 c-39 -12 -140 -107 -140 -131 0 -14 32 -16 270 -16 l270 0 0 80 0 80 -182 -1 c-103 -1 -198 -6 -218 -12z"
       id="path4"
       style="fill:#00627f;fill-opacity:1" />
    <path
       d="M1625 2295 c-50 -49 -15 -135 55 -135 19 0 40 9 55 25 16 15 25 36 25 55 0 19 -9 40 -25 55 -15 16 -36 25 -55 25 -19 0 -40 -9 -55 -25z"
       id="path5"
       style="fill:#00627f;fill-opacity:1" />
    <path
       d="M265 3895 c-16 -15 -25 -36 -25 -55 0 -19 9 -40 25 -55 24 -25 25 -25 218 -25 l193 0 17 36 c10 20 20 56 24 80 l6 44 -217 0 -217 0 -24 -25z"
       id="path6"
       style="fill:#00627f;fill-opacity:1" />
    <path
       d="M4403 3876 c4 -24 14 -60 24 -80 l17 -36 193 0 c193 0 194 0 218 25 16 15 25 36 25 55 0 19 -9 40 -25 55 l-24 25 -217 0 -217 0 6 -44z"
       id="path7"
       style="fill:#00627f;fill-opacity:1" />
    <path
       d="M2160 2867 c-39 -12 -140 -107 -140 -131 0 -14 57 -16 540 -16 483 0 540 2 540 16 0 27 -101 119 -146 132 -54 16 -743 15 -794 -1z"
       id="path8"
       style="fill:#00627f;fill-opacity:1" />
    <path
       d="M2824 2292 l-151 -228 136 -51 c74 -29 136 -51 137 -50 49 69 244 369 244 375 0 8 -204 183 -212 182 -2 0 -71 -103 -154 -228z"
       id="path9"
       style="fill:#00627f;fill-opacity:1" />
    <path
       d="M3225 2094 c-49 -75 -98 -149 -108 -164 l-18 -28 43 -15 c24 -8 80 -29 126 -46 l82 -31 87 130 c50 76 83 134 77 139 -66 58 -183 151 -190 151 -5 0 -49 -62 -99 -136z"
       id="path10"
       style="fill:#00627f;fill-opacity:1" />
    <path
       d="M2359 1585 l-96 -385 157 0 158 0 82 330 c45 182 81 333 78 335 -5 5 -268 105 -277 105 -3 0 -49 -173 -102 -385z"
       id="path11"
       style="fill:#00627f;fill-opacity:1" />
    <path
       d="M3576 1859 c-37 -56 -64 -105 -59 -109 7 -6 228 -90 237 -90 5 0 98 142 94 144 -2 2 -45 37 -96 79 -52 43 -97 77 -101 77 -5 0 -38 -46 -75 -101z"
       id="path12"
       style="fill:#00627f;fill-opacity:1" />
    <path
       d="M2819 1505 l-76 -305 157 0 158 0 61 247 c34 135 58 250 54 254 -4 4 -62 28 -128 52 -66 25 -127 48 -135 51 -12 5 -29 -49 -91 -299z"
       id="path13"
       style="fill:#00627f;fill-opacity:1" />
    <path
       d="M722 1601 c3 -152 9 -168 72 -215 25 -19 42 -21 166 -21 124 0 141 2 166 21 60 44 69 67 72 185 l4 109 -120 0 c-124 0 -241 17 -307 44 -20 9 -42 16 -47 16 -6 0 -8 -55 -6 -139z"
       id="path14"
       style="fill:#00627f;fill-opacity:1" />
    <path
       d="M3942 1649 l-32 -49 22 -9 c13 -4 50 -18 83 -31 176 -65 215 -79 215 -76 0 3 -176 151 -235 197 -20 16 -22 15 -53 -32z"
       id="path15"
       style="fill:#00627f;fill-opacity:1" />
    <path
       d="M3277 1420 l-55 -220 158 0 158 0 41 166 c23 92 40 168 38 170 -5 5 -268 104 -277 104 -4 0 -32 -99 -63 -220z"
       id="path16"
       style="fill:#00627f;fill-opacity:1" />
    <path
       d="M3738 1341 l-36 -141 158 0 158 0 20 83 c12 45 18 85 14 89 -4 4 -61 27 -127 51 -66 25 -127 48 -136 52 -14 5 -22 -17 -51 -134z"
       id="path17"
       style="fill:#00627f;fill-opacity:1" />
    <path
       d="M4200 1268 c-6 -24 -13 -49 -15 -55 -3 -10 33 -13 163 -13 l167 1 -144 54 c-79 30 -148 55 -152 55 -5 0 -13 -19 -19 -42z"
       id="path18"
       style="fill:#00627f;fill-opacity:1" />
    <path
       d="M2160 640 l0 -400 160 0 160 0 0 400 0 400 -160 0 -160 0 0 -400z"
       id="path19"
       style="fill:#00627f;fill-opacity:1" />
    <path
       d="M2640 640 l0 -400 160 0 160 0 0 400 0 400 -160 0 -160 0 0 -400z"
       id="path20"
       style="fill:#00627f;fill-opacity:1" />
    <path
       d="M3120 640 l0 -400 160 0 160 0 0 400 0 400 -160 0 -160 0 0 -400z"
       id="path21"
       style="fill:#00627f;fill-opacity:1" />
    <path
       d="M3600 640 l0 -400 160 0 160 0 0 400 0 400 -160 0 -160 0 0 -400z"
       id="path22"
       style="fill:#00627f;fill-opacity:1" />
    <path
       d="M4080 640 l0 -400 400 0 400 0 0 400 0 400 -400 0 -400 0 0 -400z m474 228 c86 -26 166 -136 166 -228 0 -124 -116 -240 -240 -240 -124 0 -240 116 -240 240 0 63 23 114 75 165 70 71 145 90 239 63z"
       id="path23"
       style="fill:#00627f;fill-opacity:1" />
    <path
       d="M4425 695 c-50 -49 -15 -135 55 -135 41 0 80 39 80 80 0 41 -39 80 -80 80 -19 0 -40 -9 -55 -25z"
       id="path24"
       style="fill:#00627f;fill-opacity:1" />
  </g>
</svg>
