<?xml version="1.0" encoding="UTF-8" standalone="no"?>
<!-- Uploaded to: SVG Repo, www.svgrepo.com, Generator: SVG Repo Mixer Tools -->

<svg
   fill="#000000"
   version="1.1"
   id="Layer_2"
   viewBox="0 0 360 360"
   xml:space="preserve"
   width="800px"
   height="800px"
   sodipodi:docname="infiniti.svg"
   inkscape:version="1.4 (e7c3feb1, 2024-10-09)"
   xmlns:inkscape="http://www.inkscape.org/namespaces/inkscape"
   xmlns:sodipodi="http://sodipodi.sourceforge.net/DTD/sodipodi-0.dtd"
   xmlns="http://www.w3.org/2000/svg"
   xmlns:svg="http://www.w3.org/2000/svg"><defs
   id="defs3" /><sodipodi:namedview
   id="namedview3"
   pagecolor="#ffffff"
   bordercolor="#cccccc"
   borderopacity="1"
   inkscape:showpageshadow="0"
   inkscape:pageopacity="1"
   inkscape:pagecheckerboard="0"
   inkscape:deskcolor="#d1d1d1"
   inkscape:zoom="1.23125"
   inkscape:cx="395.1269"
   inkscape:cy="396.75127"
   inkscape:window-width="1200"
   inkscape:window-height="1134"
   inkscape:window-x="0"
   inkscape:window-y="25"
   inkscape:window-maximized="0"
   inkscape:current-layer="Layer_2" />
<g
   id="g3"
   style="fill:#c49632;fill-opacity:1">
	<g
   id="g2"
   style="fill:#c49632;fill-opacity:1">
		<g
   id="g1"
   style="fill:#c49632;fill-opacity:1">
			<path
   d="M226.7,272.5c6.4-0.8,50.9-6.2,82.3-21.9c34-17,50.4-44.5,50.4-68.9c0-52.7-73.8-93.4-179.5-93.4S0.6,128.7,0.6,181.7     c0,24.7,16.2,52.5,50.4,68.9c31.6,15.2,76.4,20.8,83.1,21.9l45.8-134L226.7,272.5L226.7,272.5z M179.9,117.6     c0,0-69.7,92.9-76.4,101.3c-25.7-2.3-70.2-19.3-70.2-48.4c0-37,64.8-71.5,146.6-71.5c85.9,0,146.6,34.5,146.6,71.5     c0,29.3-44.5,46-70.2,48.1C249.3,209.7,179.9,117.6,179.9,117.6"
   id="path1"
   style="fill:#c49632;fill-opacity:1" />
		</g>
	</g>
</g>
</svg>
