<?xml version="1.0" encoding="UTF-8" standalone="no"?>
<svg
   viewBox="0 0 131.13 110.05"
   version="1.1"
   id="svg5"
   sodipodi:docname="Nissan.svg"
   inkscape:version="1.4 (e7c3feb1, 2024-10-09)"
   xmlns:inkscape="http://www.inkscape.org/namespaces/inkscape"
   xmlns:sodipodi="http://sodipodi.sourceforge.net/DTD/sodipodi-0.dtd"
   xmlns="http://www.w3.org/2000/svg"
   xmlns:svg="http://www.w3.org/2000/svg">
  <defs
     id="defs5" />
  <sodipodi:namedview
     id="namedview5"
     pagecolor="#ffffff"
     bordercolor="#cccccc"
     borderopacity="1"
     inkscape:showpageshadow="0"
     inkscape:pageopacity="1"
     inkscape:pagecheckerboard="0"
     inkscape:deskcolor="#d1d1d1"
     inkscape:zoom="1.4235963"
     inkscape:cx="65.678732"
     inkscape:cy="55.142037"
     inkscape:window-width="1200"
     inkscape:window-height="1136"
     inkscape:window-x="0"
     inkscape:window-y="26"
     inkscape:window-maximized="0"
     inkscape:current-layer="svg5" />
  <title
     id="title1">Nissan logo</title>
  <path
     d="M465,496.6a49.42,49.42,0,0,1,94,0l.06.17h15v-1.83l-6.23-.74c-3.84-.46-4.66-2.19-5.7-4.39l-.27-.54a54.64,54.64,0,0,0-99.73,0l-.25.53c-1,2.2-1.87,3.93-5.7,4.39l-6.23.75v1.84h15Z"
     transform="translate(-446.44 -456.97)"
     id="path1"
     style="fill:#c49632;fill-opacity:1" />
  <path
     d="M559.08,527.23l-.06.17a49.71,49.71,0,0,1-47,34.2h0a49.67,49.67,0,0,1-47-34.21l-.06-.17h-15v1.84l6.22.74c3.83.46,4.66,2.19,5.7,4.39l.25.53A55.17,55.17,0,0,0,512,567h0a55.17,55.17,0,0,0,49.87-32.3l.25-.54c1-2.19,1.86-3.92,5.7-4.38l6.23-.74v-1.84Z"
     transform="translate(-446.44 -456.97)"
     id="path2"
     style="fill:#c49632;fill-opacity:1" />
  <rect
     x="26.93"
     y="48"
     width="3.51"
     height="15.22"
     id="rect2"
     style="fill:#c49632;fill-opacity:1" />
  <polygon
     points="18.73 63.22 18.73 48 15.4 48 15.4 59.34 4.29 48 0 48 0 63.22 3.33 63.22 3.33 51.8 14.52 63.22 18.73 63.22"
     id="polygon2"
     style="fill:#c49632;fill-opacity:1" />
  <path
     d="M540.57,505l-9.83,15.22H535l1.75-2.72h11.47l1.75,2.72h4.22L544.32,505Zm5.81,9.62H538.5l3.94-6.12Z"
     transform="translate(-446.44 -456.97)"
     id="path3"
     style="fill:#c49632;fill-opacity:1" />
  <path
     d="M523.56,517c-.1,0-.54,0-.71,0H508.94v3.14h14.13c.12,0,.93,0,1.13,0a4.66,4.66,0,0,0,.2-9.25,10.63,10.63,0,0,0-1.13,0H514a5.57,5.57,0,0,1-1-.08,1.31,1.31,0,0,1-1-1.33,1.38,1.38,0,0,1,1-1.32,3.51,3.51,0,0,1,1-.07h13.33V505H513.79a10.07,10.07,0,0,0-1.35.07,4.48,4.48,0,0,0-.06,8.89,11.53,11.53,0,0,0,1.45.06h9a6.5,6.5,0,0,1,.65,0,1.51,1.51,0,0,1,.08,3"
     transform="translate(-446.44 -456.97)"
     id="path4"
     style="fill:#c49632;fill-opacity:1" />
  <path
     d="M497.81,517c-.1,0-.54,0-.71,0H483.18v3.14h14.13c.12,0,.93,0,1.13,0a4.66,4.66,0,0,0,.22-9.25,10.69,10.69,0,0,0-1.13,0h-9.25a5.54,5.54,0,0,1-1-.08,1.32,1.32,0,0,1-1-1.33,1.38,1.38,0,0,1,1-1.32,3.51,3.51,0,0,1,1-.07h13.33V505H488a10,10,0,0,0-1.35.07,4.48,4.48,0,0,0-.06,8.89,11.54,11.54,0,0,0,1.46.06h9c.17,0,.56,0,.65,0a1.51,1.51,0,0,1,.08,3"
     transform="translate(-446.44 -456.97)"
     id="path5"
     style="fill:#c49632;fill-opacity:1" />
  <polygon
     points="131.13 63.22 131.13 48 127.79 48 127.79 59.34 116.69 48 112.39 48 112.39 63.22 115.73 63.22 115.73 51.8 126.92 63.22 131.13 63.22"
     id="polygon5"
     style="fill:#c49632;fill-opacity:1" />
</svg>
