<?xml version="1.0" encoding="UTF-8" standalone="no"?>
<!-- Uploaded to: SVG Repo, www.svgrepo.com, Generator: SVG Repo Mixer Tools -->

<svg
   fill="#000000"
   version="1.1"
   id="Layer_1"
   viewBox="0 0 320 320"
   xml:space="preserve"
   width="800px"
   height="800px"
   sodipodi:docname="tesla.svg"
   inkscape:version="1.4 (e7c3feb1, 2024-10-09)"
   xmlns:inkscape="http://www.inkscape.org/namespaces/inkscape"
   xmlns:sodipodi="http://sodipodi.sourceforge.net/DTD/sodipodi-0.dtd"
   xmlns="http://www.w3.org/2000/svg"
   xmlns:svg="http://www.w3.org/2000/svg"><defs
   id="defs2" /><sodipodi:namedview
   id="namedview2"
   pagecolor="#ffffff"
   bordercolor="#cccccc"
   borderopacity="1"
   inkscape:showpageshadow="0"
   inkscape:pageopacity="1"
   inkscape:pagecheckerboard="0"
   inkscape:deskcolor="#d1d1d1"
   inkscape:zoom="1.23375"
   inkscape:cx="399.59473"
   inkscape:cy="400"
   inkscape:window-width="1200"
   inkscape:window-height="1136"
   inkscape:window-x="0"
   inkscape:window-y="25"
   inkscape:window-maximized="0"
   inkscape:current-layer="T" />
<title
   id="title1">brand-icon-tesla-solid1</title>
<g
   id="tesla"
   style="fill:#000000;fill-opacity:1">
	<g
   id="T"
   style="fill:#000000;fill-opacity:1">
		<path
   d="M160,318l44.4-249.7c42.3,0,55.7,4.7,57.6,23.6c0,0,28.4-10.6,42.7-32.1c-55.9-25.9-112-27.1-112-27.1l-32.8,39.9h0.1    l-32.8-39.9c0,0-56.1,1.2-112,27.1c14.3,21.5,42.7,32.1,42.7,32.1c2-18.9,15.3-23.6,57.3-23.6L160,318z"
   id="path1"
   style="fill:#c49632;fill-opacity:1" />
		<path
   d="M160,21.2c45.2-0.4,96.8,7,149.8,30.1c7.1-12.7,8.9-18.4,8.9-18.4C268.2,12.8,214.4,2.3,160,2    C105.6,2.3,51.8,12.8,1.3,32.9c2.6,6.3,5.5,12.4,8.9,18.4C63.1,28.2,114.8,20.9,160,21.2L160,21.2"
   id="path2"
   style="fill:#c49632;fill-opacity:1" />
	</g>
</g>
</svg>
