<?xml version="1.0" encoding="UTF-8" standalone="no"?>
<!-- Uploaded to: SVG Repo, www.svgrepo.com, Generator: SVG Repo Mixer Tools -->

<svg
   fill="#000000"
   width="800px"
   height="800px"
   viewBox="0 0 24 24"
   role="img"
   version="1.1"
   id="svg1"
   sodipodi:docname="toyota.svg"
   inkscape:version="1.4 (e7c3feb1, 2024-10-09)"
   xmlns:inkscape="http://www.inkscape.org/namespaces/inkscape"
   xmlns:sodipodi="http://sodipodi.sourceforge.net/DTD/sodipodi-0.dtd"
   xmlns="http://www.w3.org/2000/svg"
   xmlns:svg="http://www.w3.org/2000/svg">
  <defs
     id="defs1" />
  <sodipodi:namedview
     id="namedview1"
     pagecolor="#ffffff"
     bordercolor="#cccccc"
     borderopacity="1"
     inkscape:showpageshadow="0"
     inkscape:pageopacity="1"
     inkscape:pagecheckerboard="0"
     inkscape:deskcolor="#d1d1d1"
     inkscape:zoom="1.23375"
     inkscape:cx="400"
     inkscape:cy="400"
     inkscape:window-width="1200"
     inkscape:window-height="1136"
     inkscape:window-x="0"
     inkscape:window-y="25"
     inkscape:window-maximized="0"
     inkscape:current-layer="svg1" />
  <title
     id="title1">Toyota icon</title>
  <path
     d="M12 4.236c-6.627 0-12 3.476-12 7.762 0 4.289 5.373 7.766 12 7.766s12-3.476 12-7.766-5.373-7.762-12-7.762zm0 12.196c-.986 0-1.79-1.942-1.84-4.385a21.093 21.093 0 0 0 3.68 0c-.05 2.442-.854 4.385-1.84 4.385zm-1.719-6.324c.268-1.727.937-2.953 1.719-2.953s1.45 1.226 1.719 2.953a19.436 19.436 0 0 1-3.438 0zM12 5.358c-1.287 0-2.385 1.928-2.79 4.619-2.44-.38-4.143-1.248-4.143-2.256 0-1.36 3.104-2.461 6.933-2.461 3.83 0 6.933 1.102 6.933 2.461 0 1.008-1.703 1.876-4.143 2.256-.405-2.69-1.503-4.618-2.79-4.618zm-10.28 6.35c0-1.315.507-2.55 1.388-3.61-.009.074-.015.15-.015.226 0 1.657 2.485 3.07 5.953 3.59-.003.12-.003.242-.003.364 0 3.09.866 5.705 2.063 6.593-5.26-.317-9.385-3.403-9.385-7.163zm11.174 7.163c1.197-.888 2.063-3.504 2.063-6.593 0-.123-.002-.243-.003-.363 3.466-.52 5.953-1.932 5.953-3.591 0-.076-.006-.152-.015-.226.881 1.063 1.387 2.295 1.387 3.61 0 3.76-4.125 6.846-9.385 7.163zm0 0Z"
     id="path1"
     style="fill:#c49632;fill-opacity:1" />
</svg>
