<?xml version="1.0" encoding="UTF-8" standalone="no"?>
<svg
   version="1.0"
   width="512.000000pt"
   height="512.000000pt"
   viewBox="0 0 512.000000 512.000000"
   preserveAspectRatio="xMidYMid meet"
   id="svg4"
   sodipodi:docname="year.svg"
   inkscape:version="1.4 (e7c3feb1, 2024-10-09)"
   xmlns:inkscape="http://www.inkscape.org/namespaces/inkscape"
   xmlns:sodipodi="http://sodipodi.sourceforge.net/DTD/sodipodi-0.dtd"
   xmlns="http://www.w3.org/2000/svg"
   xmlns:svg="http://www.w3.org/2000/svg">
  <defs
     id="defs4" />
  <sodipodi:namedview
     id="namedview4"
     pagecolor="#ffffff"
     bordercolor="#cccccc"
     borderopacity="1"
     inkscape:showpageshadow="0"
     inkscape:pageopacity="1"
     inkscape:pagecheckerboard="0"
     inkscape:deskcolor="#d1d1d1"
     inkscape:document-units="pt"
     inkscape:zoom="1.4399414"
     inkscape:cx="337.51373"
     inkscape:cy="341.33333"
     inkscape:window-width="1200"
     inkscape:window-height="1132"
     inkscape:window-x="0"
     inkscape:window-y="25"
     inkscape:window-maximized="0"
     inkscape:current-layer="svg4" />
  <g
     transform="translate(0.000000,512.000000) scale(0.100000,-0.100000)"
     fill="#000000"
     stroke="none"
     id="g4"
     style="fill:#00627f;fill-opacity:1">
    <path
       d="M688 5099 c-66 -34 -78 -74 -78 -249 l0 -150 -100 0 c-177 0 -276 -36 -376 -135 -65 -65 -105 -136 -123 -223 -7 -34 -11 -196 -11 -447 l0 -395 2560 0 2560 0 0 395 c0 256 -4 413 -11 447 -19 86 -59 158 -124 224 -98 99 -197 134 -375 134 l-100 0 0 150 c0 177 -12 215 -80 250 -50 25 -90 25 -140 0 -68 -35 -80 -73 -80 -250 l0 -150 -450 0 -450 0 0 150 c0 177 -12 215 -80 250 -50 25 -90 25 -140 0 -68 -35 -80 -73 -80 -250 l0 -150 -450 0 -450 0 0 150 c0 177 -12 215 -80 250 -50 25 -90 25 -140 0 -68 -35 -80 -73 -80 -250 l0 -150 -450 0 -450 0 0 150 c0 131 -3 156 -20 190 -37 73 -127 99 -202 59z m222 -699 c0 -282 -1 -303 -20 -340 -23 -45 -80 -80 -131 -80 -46 0 -108 39 -130 82 -17 34 -19 62 -19 338 l0 300 150 0 150 0 0 -300z m1200 0 c0 -282 -1 -303 -20 -340 -23 -45 -80 -80 -131 -80 -46 0 -108 39 -130 82 -17 34 -19 62 -19 338 l0 300 150 0 150 0 0 -300z m1200 0 c0 -282 -1 -303 -20 -340 -23 -45 -80 -80 -131 -80 -46 0 -108 39 -130 82 -17 34 -19 62 -19 338 l0 300 150 0 150 0 0 -300z m1200 0 c0 -282 -1 -303 -20 -340 -23 -45 -80 -80 -131 -80 -46 0 -108 39 -130 82 -17 34 -19 62 -19 338 l0 300 150 0 150 0 0 -300z"
       id="path1"
       style="fill:#00627f;fill-opacity:1" />
    <path
       d="M0 1805 c0 -1001 3 -1409 11 -1447 37 -172 175 -310 347 -347 75 -16 4328 -16 4404 0 170 36 311 178 347 347 8 37 11 464 11 1447 l0 1395 -2560 0 -2560 0 0 -1395z m4199 465 c147 -19 275 -108 337 -235 27 -55 29 -69 29 -170 0 -101 -2 -115 -29 -170 -41 -84 -125 -164 -208 -200 -38 -16 -68 -32 -68 -35 0 -3 61 -74 135 -158 184 -209 175 -197 175 -254 0 -43 -4 -54 -34 -84 -30 -30 -41 -34 -84 -34 -33 0 -57 6 -73 19 -13 10 -107 114 -209 230 l-185 211 -5 -192 c-4 -162 -8 -197 -23 -219 -49 -73 -173 -64 -211 15 -14 30 -16 97 -16 606 0 508 2 576 16 606 17 35 37 50 83 65 37 11 283 10 370 -1z m-3457 -19 c14 -11 81 -106 149 -210 68 -105 127 -191 130 -191 4 0 62 86 130 191 129 200 157 229 217 229 72 0 122 -50 122 -123 0 -40 -16 -68 -170 -306 l-170 -261 -1 -248 c0 -298 -5 -336 -48 -374 -56 -50 -156 -33 -192 33 -6 13 -10 122 -9 299 l0 278 -175 269 c-166 254 -175 271 -175 317 0 41 5 53 34 82 30 30 41 34 84 34 34 0 57 -6 74 -19z m1577 -7 c17 -14 36 -43 42 -64 10 -32 9 -44 -7 -76 -37 -74 -52 -79 -265 -82 l-190 -4 3 -146 3 -147 173 -3 c189 -3 209 -8 238 -63 29 -57 11 -129 -43 -165 -24 -16 -52 -19 -201 -22 l-173 -4 3 -146 3 -147 197 -5 c191 -5 197 -6 222 -29 15 -14 31 -42 37 -62 10 -31 9 -43 -7 -75 -11 -21 -32 -47 -47 -58 -27 -20 -41 -21 -297 -21 -256 0 -270 1 -297 21 -65 47 -63 31 -63 652 0 610 0 607 55 650 27 21 36 22 306 22 l277 0 31 -26z m808 6 c18 -10 39 -32 46 -47 37 -71 427 -1125 427 -1153 0 -38 -23 -84 -52 -104 -13 -9 -43 -16 -69 -16 -62 0 -101 32 -128 105 -12 30 -30 80 -42 110 l-20 55 -244 0 -244 0 -42 -111 c-52 -134 -75 -159 -151 -159 -44 0 -54 4 -84 34 -58 58 -58 59 171 662 113 296 212 554 221 572 36 69 141 95 211 52z"
       id="path2"
       style="fill:#00627f;fill-opacity:1" />
    <path
       d="M3980 1859 l0 -161 108 4 c85 3 116 8 148 26 56 29 84 76 84 140 0 43 -5 57 -31 87 -51 57 -74 65 -199 65 l-110 0 0 -161z"
       id="path3"
       style="fill:#00627f;fill-opacity:1" />
    <path
       d="M2975 1657 c-37 -100 -70 -188 -73 -194 -3 -10 29 -13 142 -13 80 0 146 2 146 5 0 6 -139 378 -143 381 -1 2 -34 -79 -72 -179z"
       id="path4"
       style="fill:#00627f;fill-opacity:1" />
  </g>
</svg>
